G75*
%MOIN*%
%OFA0B0*%
%FSLAX25Y25*%
%IPPOS*%
%LPD*%
%AMOC8*
5,1,8,0,0,1.08239X$1,22.5*
%
%ADD10R,0.30921X0.28961*%
%ADD11R,0.01890X0.05512*%
%ADD12R,0.15748X0.01181*%
%ADD13R,0.01181X0.15748*%
%ADD14C,0.00394*%
%ADD15C,0.03543*%
%ADD16C,0.04260*%
D10*
X0125768Y0143201D03*
X0181957Y0143201D03*
X0238146Y0143201D03*
X0294335Y0143201D03*
X0350524Y0143201D03*
X0406713Y0143201D03*
X0462902Y0143201D03*
X0519091Y0143201D03*
X0575280Y0143201D03*
X0631469Y0143201D03*
X0687657Y0143201D03*
X0743846Y0143201D03*
X0800035Y0143201D03*
X0856224Y0143201D03*
X0912413Y0143201D03*
X0968602Y0143201D03*
X0968602Y0202280D03*
X0912413Y0202280D03*
X0856224Y0202280D03*
X0800035Y0202280D03*
X0743846Y0202280D03*
X0687657Y0202280D03*
X0631469Y0202280D03*
X0575280Y0202280D03*
X0519091Y0202280D03*
X0462902Y0202280D03*
X0406713Y0202280D03*
X0350524Y0202280D03*
X0294335Y0202280D03*
X0238146Y0202280D03*
X0181957Y0202280D03*
X0125768Y0202280D03*
X0125768Y0261358D03*
X0181957Y0261358D03*
X0238146Y0261358D03*
X0294335Y0261358D03*
X0350524Y0261358D03*
X0406713Y0261358D03*
X0462902Y0261358D03*
X0519091Y0261358D03*
X0575280Y0261358D03*
X0631469Y0261358D03*
X0687657Y0261358D03*
X0743846Y0261358D03*
X0800035Y0261358D03*
X0856224Y0261358D03*
X0912413Y0261358D03*
X0968602Y0261358D03*
X0968602Y0320437D03*
X0912413Y0320437D03*
X0856224Y0320437D03*
X0800035Y0320437D03*
X0743846Y0320437D03*
X0687657Y0320437D03*
X0631469Y0320437D03*
X0575280Y0320437D03*
X0519091Y0320437D03*
X0462902Y0320437D03*
X0406713Y0320437D03*
X0350524Y0320437D03*
X0294335Y0320437D03*
X0238146Y0320437D03*
X0181957Y0320437D03*
X0125768Y0320437D03*
X0125768Y0379516D03*
X0181957Y0379516D03*
X0238146Y0379516D03*
X0294335Y0379516D03*
X0350524Y0379516D03*
X0406713Y0379516D03*
X0462902Y0379516D03*
X0519091Y0379516D03*
X0575280Y0379516D03*
X0631469Y0379516D03*
X0687657Y0379516D03*
X0743846Y0379516D03*
X0800035Y0379516D03*
X0856224Y0379516D03*
X0912413Y0379516D03*
X0968602Y0379516D03*
X0968602Y0438594D03*
X0912413Y0438594D03*
X0856224Y0438594D03*
X0800035Y0438594D03*
X0743846Y0438594D03*
X0687657Y0438594D03*
X0631469Y0438594D03*
X0575280Y0438594D03*
X0519091Y0438594D03*
X0462902Y0438594D03*
X0406713Y0438594D03*
X0350524Y0438594D03*
X0294335Y0438594D03*
X0238146Y0438594D03*
X0181957Y0438594D03*
X0125768Y0438594D03*
X0125768Y0497673D03*
X0181957Y0497673D03*
X0238146Y0497673D03*
X0294335Y0497673D03*
X0350524Y0497673D03*
X0406713Y0497673D03*
X0462902Y0497673D03*
X0519091Y0497673D03*
X0575280Y0497673D03*
X0631469Y0497673D03*
X0687657Y0497673D03*
X0743846Y0497673D03*
X0800035Y0497673D03*
X0856224Y0497673D03*
X0912413Y0497673D03*
X0968602Y0497673D03*
X0968602Y0556752D03*
X0912413Y0556752D03*
X0856224Y0556752D03*
X0800035Y0556752D03*
X0743846Y0556752D03*
X0687657Y0556752D03*
X0631469Y0556752D03*
X0575280Y0556752D03*
X0519091Y0556752D03*
X0462902Y0556752D03*
X0406713Y0556752D03*
X0350524Y0556752D03*
X0294335Y0556752D03*
X0238146Y0556752D03*
X0181957Y0556752D03*
X0125768Y0556752D03*
D11*
X0125768Y0081083D03*
X0181957Y0081083D03*
X0238146Y0081083D03*
X0294335Y0081083D03*
X0350524Y0081083D03*
X0406713Y0081083D03*
X0462902Y0081083D03*
X0519091Y0081083D03*
X0575280Y0081083D03*
X0631469Y0081083D03*
X0687657Y0081083D03*
X0743846Y0081083D03*
X0800035Y0081083D03*
X0856224Y0081083D03*
X0912413Y0081083D03*
X0968602Y0081083D03*
D12*
X0968602Y0060020D03*
X0912413Y0060020D03*
X0856224Y0060020D03*
X0800035Y0060020D03*
X0743846Y0060020D03*
X0687657Y0060020D03*
X0631469Y0060020D03*
X0575280Y0060020D03*
X0519091Y0060020D03*
X0462902Y0060020D03*
X0406713Y0060020D03*
X0350524Y0060020D03*
X0294335Y0060020D03*
X0238146Y0060020D03*
X0181957Y0060020D03*
X0125768Y0060020D03*
D13*
X0116122Y0068878D03*
X0135413Y0069272D03*
X0172311Y0068878D03*
X0191602Y0069272D03*
X0228500Y0068878D03*
X0247791Y0069272D03*
X0284689Y0068878D03*
X0303980Y0069272D03*
X0340878Y0068878D03*
X0360169Y0069272D03*
X0397067Y0068878D03*
X0416358Y0069272D03*
X0453256Y0068878D03*
X0472547Y0069272D03*
X0509445Y0068878D03*
X0528736Y0069272D03*
X0565634Y0068878D03*
X0584925Y0069272D03*
X0621823Y0068878D03*
X0641114Y0069272D03*
X0678012Y0068878D03*
X0697303Y0069272D03*
X0734201Y0068878D03*
X0753492Y0069272D03*
X0790390Y0068878D03*
X0809681Y0069272D03*
X0846579Y0068878D03*
X0865870Y0069272D03*
X0902768Y0068878D03*
X0922059Y0069272D03*
X0958957Y0068878D03*
X0978248Y0069272D03*
D14*
X0115531Y0059429D02*
X0115531Y0079902D01*
X0121831Y0079902D01*
X0121831Y0077815D01*
X0121693Y0077756D01*
X0121437Y0077618D01*
X0121161Y0077461D01*
X0120906Y0077303D01*
X0120610Y0077106D01*
X0120354Y0076929D01*
X0120059Y0076693D01*
X0119803Y0076476D01*
X0119587Y0076280D01*
X0119469Y0076161D01*
X0119252Y0075945D01*
X0119094Y0075787D01*
X0118839Y0075492D01*
X0118720Y0075354D01*
X0118583Y0075177D01*
X0118366Y0074882D01*
X0118189Y0074626D01*
X0117972Y0074272D01*
X0117795Y0073957D01*
X0117638Y0073661D01*
X0117500Y0073366D01*
X0117382Y0073091D01*
X0117244Y0072736D01*
X0117126Y0072382D01*
X0117028Y0072028D01*
X0116949Y0071732D01*
X0116890Y0071457D01*
X0116831Y0071122D01*
X0116791Y0070866D01*
X0116752Y0070492D01*
X0116732Y0070236D01*
X0116713Y0069902D01*
X0116713Y0069665D01*
X0116824Y0068249D01*
X0117156Y0066867D01*
X0117700Y0065554D01*
X0118442Y0064343D01*
X0119365Y0063262D01*
X0120445Y0062340D01*
X0121657Y0061597D01*
X0122970Y0061053D01*
X0124351Y0060722D01*
X0125768Y0060610D01*
X0127184Y0060722D01*
X0128566Y0061053D01*
X0129879Y0061597D01*
X0131090Y0062340D01*
X0132171Y0063262D01*
X0133093Y0064343D01*
X0133836Y0065554D01*
X0134380Y0066867D01*
X0134711Y0068249D01*
X0134823Y0069665D01*
X0134823Y0069941D01*
X0134803Y0070276D01*
X0134783Y0070492D01*
X0134764Y0070709D01*
X0134744Y0070866D01*
X0134705Y0071122D01*
X0134665Y0071358D01*
X0134587Y0071732D01*
X0134508Y0072047D01*
X0134429Y0072323D01*
X0134350Y0072559D01*
X0134291Y0072736D01*
X0134193Y0072992D01*
X0134075Y0073287D01*
X0133937Y0073583D01*
X0133819Y0073819D01*
X0133701Y0074035D01*
X0133602Y0074213D01*
X0133445Y0074469D01*
X0133307Y0074685D01*
X0133130Y0074941D01*
X0132953Y0075177D01*
X0132795Y0075374D01*
X0132697Y0075492D01*
X0132539Y0075669D01*
X0132362Y0075866D01*
X0132146Y0076083D01*
X0132008Y0076220D01*
X0131791Y0076417D01*
X0131634Y0076555D01*
X0131398Y0076752D01*
X0131220Y0076890D01*
X0130925Y0077106D01*
X0130630Y0077303D01*
X0130276Y0077520D01*
X0130020Y0077657D01*
X0129803Y0077776D01*
X0129705Y0077815D01*
X0129705Y0079902D01*
X0136004Y0079902D01*
X0136004Y0059429D01*
X0115531Y0059429D01*
X0115531Y0059608D02*
X0136004Y0059608D01*
X0136004Y0060001D02*
X0115531Y0060001D01*
X0115531Y0060393D02*
X0136004Y0060393D01*
X0136004Y0060785D02*
X0127448Y0060785D01*
X0128865Y0061177D02*
X0136004Y0061177D01*
X0136004Y0061570D02*
X0129812Y0061570D01*
X0130474Y0061962D02*
X0136004Y0061962D01*
X0136004Y0062354D02*
X0131107Y0062354D01*
X0131566Y0062746D02*
X0136004Y0062746D01*
X0136004Y0063138D02*
X0132025Y0063138D01*
X0132400Y0063531D02*
X0136004Y0063531D01*
X0136004Y0063923D02*
X0132735Y0063923D01*
X0133070Y0064315D02*
X0136004Y0064315D01*
X0136004Y0064707D02*
X0133317Y0064707D01*
X0133557Y0065099D02*
X0136004Y0065099D01*
X0136004Y0065492D02*
X0133797Y0065492D01*
X0133972Y0065884D02*
X0136004Y0065884D01*
X0136004Y0066276D02*
X0134135Y0066276D01*
X0134297Y0066668D02*
X0136004Y0066668D01*
X0136004Y0067060D02*
X0134426Y0067060D01*
X0134520Y0067453D02*
X0136004Y0067453D01*
X0136004Y0067845D02*
X0134614Y0067845D01*
X0134709Y0068237D02*
X0136004Y0068237D01*
X0136004Y0068629D02*
X0134741Y0068629D01*
X0134772Y0069022D02*
X0136004Y0069022D01*
X0136004Y0069414D02*
X0134803Y0069414D01*
X0134823Y0069806D02*
X0136004Y0069806D01*
X0136004Y0070198D02*
X0134808Y0070198D01*
X0134775Y0070590D02*
X0136004Y0070590D01*
X0136004Y0070983D02*
X0134726Y0070983D01*
X0134662Y0071375D02*
X0136004Y0071375D01*
X0136004Y0071767D02*
X0134578Y0071767D01*
X0134476Y0072159D02*
X0136004Y0072159D01*
X0136004Y0072551D02*
X0134353Y0072551D01*
X0134212Y0072944D02*
X0136004Y0072944D01*
X0136004Y0073336D02*
X0134052Y0073336D01*
X0133864Y0073728D02*
X0136004Y0073728D01*
X0136004Y0074120D02*
X0133654Y0074120D01*
X0133417Y0074513D02*
X0136004Y0074513D01*
X0136004Y0074905D02*
X0133155Y0074905D01*
X0132857Y0075297D02*
X0136004Y0075297D01*
X0136004Y0075689D02*
X0132521Y0075689D01*
X0132147Y0076081D02*
X0136004Y0076081D01*
X0136004Y0076474D02*
X0131727Y0076474D01*
X0131251Y0076866D02*
X0136004Y0076866D01*
X0136004Y0077258D02*
X0130698Y0077258D01*
X0130033Y0077650D02*
X0136004Y0077650D01*
X0136004Y0078042D02*
X0129705Y0078042D01*
X0129705Y0078435D02*
X0136004Y0078435D01*
X0136004Y0078827D02*
X0129705Y0078827D01*
X0129705Y0079219D02*
X0136004Y0079219D01*
X0136004Y0079611D02*
X0129705Y0079611D01*
X0121831Y0079611D02*
X0115531Y0079611D01*
X0115531Y0079219D02*
X0121831Y0079219D01*
X0121831Y0078827D02*
X0115531Y0078827D01*
X0115531Y0078435D02*
X0121831Y0078435D01*
X0121831Y0078042D02*
X0115531Y0078042D01*
X0115531Y0077650D02*
X0121497Y0077650D01*
X0120838Y0077258D02*
X0115531Y0077258D01*
X0115531Y0076866D02*
X0120275Y0076866D01*
X0119800Y0076474D02*
X0115531Y0076474D01*
X0115531Y0076081D02*
X0119388Y0076081D01*
X0119009Y0075689D02*
X0115531Y0075689D01*
X0115531Y0075297D02*
X0118676Y0075297D01*
X0118383Y0074905D02*
X0115531Y0074905D01*
X0115531Y0074513D02*
X0118120Y0074513D01*
X0117887Y0074120D02*
X0115531Y0074120D01*
X0115531Y0073728D02*
X0117673Y0073728D01*
X0117487Y0073336D02*
X0115531Y0073336D01*
X0115531Y0072944D02*
X0117325Y0072944D01*
X0117183Y0072551D02*
X0115531Y0072551D01*
X0115531Y0072159D02*
X0117064Y0072159D01*
X0116958Y0071767D02*
X0115531Y0071767D01*
X0115531Y0071375D02*
X0116875Y0071375D01*
X0116809Y0070983D02*
X0115531Y0070983D01*
X0115531Y0070590D02*
X0116762Y0070590D01*
X0116730Y0070198D02*
X0115531Y0070198D01*
X0115531Y0069806D02*
X0116713Y0069806D01*
X0116732Y0069414D02*
X0115531Y0069414D01*
X0115531Y0069022D02*
X0116763Y0069022D01*
X0116794Y0068629D02*
X0115531Y0068629D01*
X0115531Y0068237D02*
X0116827Y0068237D01*
X0116921Y0067845D02*
X0115531Y0067845D01*
X0115531Y0067453D02*
X0117015Y0067453D01*
X0117109Y0067060D02*
X0115531Y0067060D01*
X0115531Y0066668D02*
X0117238Y0066668D01*
X0117401Y0066276D02*
X0115531Y0066276D01*
X0115531Y0065884D02*
X0117563Y0065884D01*
X0117738Y0065492D02*
X0115531Y0065492D01*
X0115531Y0065099D02*
X0117978Y0065099D01*
X0118219Y0064707D02*
X0115531Y0064707D01*
X0115531Y0064315D02*
X0118466Y0064315D01*
X0118801Y0063923D02*
X0115531Y0063923D01*
X0115531Y0063531D02*
X0119136Y0063531D01*
X0119510Y0063138D02*
X0115531Y0063138D01*
X0115531Y0062746D02*
X0119969Y0062746D01*
X0120428Y0062354D02*
X0115531Y0062354D01*
X0115531Y0061962D02*
X0121062Y0061962D01*
X0121724Y0061570D02*
X0115531Y0061570D01*
X0115531Y0061177D02*
X0122670Y0061177D01*
X0124087Y0060785D02*
X0115531Y0060785D01*
X0171720Y0060785D02*
X0180276Y0060785D01*
X0180540Y0060722D02*
X0181957Y0060610D01*
X0183373Y0060722D01*
X0184755Y0061053D01*
X0186068Y0061597D01*
X0187279Y0062340D01*
X0188360Y0063262D01*
X0189282Y0064343D01*
X0190025Y0065554D01*
X0190569Y0066867D01*
X0190900Y0068249D01*
X0191012Y0069665D01*
X0191012Y0069941D01*
X0190992Y0070276D01*
X0190972Y0070492D01*
X0190953Y0070709D01*
X0190933Y0070866D01*
X0190894Y0071122D01*
X0190854Y0071358D01*
X0190776Y0071732D01*
X0190697Y0072047D01*
X0190618Y0072323D01*
X0190539Y0072559D01*
X0190480Y0072736D01*
X0190382Y0072992D01*
X0190264Y0073287D01*
X0190126Y0073583D01*
X0190008Y0073819D01*
X0189890Y0074035D01*
X0189791Y0074213D01*
X0189634Y0074469D01*
X0189496Y0074685D01*
X0189319Y0074941D01*
X0189142Y0075177D01*
X0188984Y0075374D01*
X0188886Y0075492D01*
X0188728Y0075669D01*
X0188551Y0075866D01*
X0188335Y0076083D01*
X0188197Y0076220D01*
X0187980Y0076417D01*
X0187823Y0076555D01*
X0187587Y0076752D01*
X0187409Y0076890D01*
X0187114Y0077106D01*
X0186819Y0077303D01*
X0186465Y0077520D01*
X0186209Y0077657D01*
X0185992Y0077776D01*
X0185894Y0077815D01*
X0185894Y0079902D01*
X0192193Y0079902D01*
X0192193Y0059429D01*
X0171720Y0059429D01*
X0171720Y0079902D01*
X0178020Y0079902D01*
X0178020Y0077815D01*
X0177882Y0077756D01*
X0177626Y0077618D01*
X0177350Y0077461D01*
X0177094Y0077303D01*
X0176799Y0077106D01*
X0176543Y0076929D01*
X0176248Y0076693D01*
X0175992Y0076476D01*
X0175776Y0076280D01*
X0175657Y0076161D01*
X0175441Y0075945D01*
X0175283Y0075787D01*
X0175028Y0075492D01*
X0174909Y0075354D01*
X0174772Y0075177D01*
X0174555Y0074882D01*
X0174378Y0074626D01*
X0174161Y0074272D01*
X0173984Y0073957D01*
X0173827Y0073661D01*
X0173689Y0073366D01*
X0173571Y0073091D01*
X0173433Y0072736D01*
X0173315Y0072382D01*
X0173217Y0072028D01*
X0173138Y0071732D01*
X0173079Y0071457D01*
X0173020Y0071122D01*
X0172980Y0070866D01*
X0172941Y0070492D01*
X0172921Y0070236D01*
X0172902Y0069902D01*
X0172902Y0069665D01*
X0173013Y0068249D01*
X0173345Y0066867D01*
X0173889Y0065554D01*
X0174631Y0064343D01*
X0175554Y0063262D01*
X0176634Y0062340D01*
X0177846Y0061597D01*
X0179159Y0061053D01*
X0180540Y0060722D01*
X0178859Y0061177D02*
X0171720Y0061177D01*
X0171720Y0061570D02*
X0177913Y0061570D01*
X0177251Y0061962D02*
X0171720Y0061962D01*
X0171720Y0062354D02*
X0176617Y0062354D01*
X0176158Y0062746D02*
X0171720Y0062746D01*
X0171720Y0063138D02*
X0175699Y0063138D01*
X0175325Y0063531D02*
X0171720Y0063531D01*
X0171720Y0063923D02*
X0174990Y0063923D01*
X0174655Y0064315D02*
X0171720Y0064315D01*
X0171720Y0064707D02*
X0174408Y0064707D01*
X0174167Y0065099D02*
X0171720Y0065099D01*
X0171720Y0065492D02*
X0173927Y0065492D01*
X0173752Y0065884D02*
X0171720Y0065884D01*
X0171720Y0066276D02*
X0173590Y0066276D01*
X0173427Y0066668D02*
X0171720Y0066668D01*
X0171720Y0067060D02*
X0173298Y0067060D01*
X0173204Y0067453D02*
X0171720Y0067453D01*
X0171720Y0067845D02*
X0173110Y0067845D01*
X0173016Y0068237D02*
X0171720Y0068237D01*
X0171720Y0068629D02*
X0172983Y0068629D01*
X0172952Y0069022D02*
X0171720Y0069022D01*
X0171720Y0069414D02*
X0172921Y0069414D01*
X0172902Y0069806D02*
X0171720Y0069806D01*
X0171720Y0070198D02*
X0172919Y0070198D01*
X0172951Y0070590D02*
X0171720Y0070590D01*
X0171720Y0070983D02*
X0172998Y0070983D01*
X0173064Y0071375D02*
X0171720Y0071375D01*
X0171720Y0071767D02*
X0173147Y0071767D01*
X0173253Y0072159D02*
X0171720Y0072159D01*
X0171720Y0072551D02*
X0173371Y0072551D01*
X0173514Y0072944D02*
X0171720Y0072944D01*
X0171720Y0073336D02*
X0173676Y0073336D01*
X0173862Y0073728D02*
X0171720Y0073728D01*
X0171720Y0074120D02*
X0174076Y0074120D01*
X0174309Y0074513D02*
X0171720Y0074513D01*
X0171720Y0074905D02*
X0174572Y0074905D01*
X0174865Y0075297D02*
X0171720Y0075297D01*
X0171720Y0075689D02*
X0175198Y0075689D01*
X0175577Y0076081D02*
X0171720Y0076081D01*
X0171720Y0076474D02*
X0175989Y0076474D01*
X0176464Y0076866D02*
X0171720Y0076866D01*
X0171720Y0077258D02*
X0177027Y0077258D01*
X0177686Y0077650D02*
X0171720Y0077650D01*
X0171720Y0078042D02*
X0178020Y0078042D01*
X0178020Y0078435D02*
X0171720Y0078435D01*
X0171720Y0078827D02*
X0178020Y0078827D01*
X0178020Y0079219D02*
X0171720Y0079219D01*
X0171720Y0079611D02*
X0178020Y0079611D01*
X0185894Y0079611D02*
X0192193Y0079611D01*
X0192193Y0079219D02*
X0185894Y0079219D01*
X0185894Y0078827D02*
X0192193Y0078827D01*
X0192193Y0078435D02*
X0185894Y0078435D01*
X0185894Y0078042D02*
X0192193Y0078042D01*
X0192193Y0077650D02*
X0186222Y0077650D01*
X0186887Y0077258D02*
X0192193Y0077258D01*
X0192193Y0076866D02*
X0187440Y0076866D01*
X0187916Y0076474D02*
X0192193Y0076474D01*
X0192193Y0076081D02*
X0188336Y0076081D01*
X0188710Y0075689D02*
X0192193Y0075689D01*
X0192193Y0075297D02*
X0189046Y0075297D01*
X0189344Y0074905D02*
X0192193Y0074905D01*
X0192193Y0074513D02*
X0189606Y0074513D01*
X0189843Y0074120D02*
X0192193Y0074120D01*
X0192193Y0073728D02*
X0190053Y0073728D01*
X0190241Y0073336D02*
X0192193Y0073336D01*
X0192193Y0072944D02*
X0190401Y0072944D01*
X0190542Y0072551D02*
X0192193Y0072551D01*
X0192193Y0072159D02*
X0190665Y0072159D01*
X0190767Y0071767D02*
X0192193Y0071767D01*
X0192193Y0071375D02*
X0190851Y0071375D01*
X0190915Y0070983D02*
X0192193Y0070983D01*
X0192193Y0070590D02*
X0190964Y0070590D01*
X0190997Y0070198D02*
X0192193Y0070198D01*
X0192193Y0069806D02*
X0191012Y0069806D01*
X0190992Y0069414D02*
X0192193Y0069414D01*
X0192193Y0069022D02*
X0190961Y0069022D01*
X0190930Y0068629D02*
X0192193Y0068629D01*
X0192193Y0068237D02*
X0190898Y0068237D01*
X0190803Y0067845D02*
X0192193Y0067845D01*
X0192193Y0067453D02*
X0190709Y0067453D01*
X0190615Y0067060D02*
X0192193Y0067060D01*
X0192193Y0066668D02*
X0190486Y0066668D01*
X0190324Y0066276D02*
X0192193Y0066276D01*
X0192193Y0065884D02*
X0190161Y0065884D01*
X0189986Y0065492D02*
X0192193Y0065492D01*
X0192193Y0065099D02*
X0189746Y0065099D01*
X0189506Y0064707D02*
X0192193Y0064707D01*
X0192193Y0064315D02*
X0189259Y0064315D01*
X0188924Y0063923D02*
X0192193Y0063923D01*
X0192193Y0063531D02*
X0188589Y0063531D01*
X0188214Y0063138D02*
X0192193Y0063138D01*
X0192193Y0062746D02*
X0187755Y0062746D01*
X0187296Y0062354D02*
X0192193Y0062354D01*
X0192193Y0061962D02*
X0186663Y0061962D01*
X0186001Y0061570D02*
X0192193Y0061570D01*
X0192193Y0061177D02*
X0185054Y0061177D01*
X0183637Y0060785D02*
X0192193Y0060785D01*
X0192193Y0060393D02*
X0171720Y0060393D01*
X0171720Y0060001D02*
X0192193Y0060001D01*
X0192193Y0059608D02*
X0171720Y0059608D01*
X0227909Y0059608D02*
X0248382Y0059608D01*
X0248382Y0059429D02*
X0227909Y0059429D01*
X0227909Y0079902D01*
X0234209Y0079902D01*
X0234209Y0077815D01*
X0234071Y0077756D01*
X0233815Y0077618D01*
X0233539Y0077461D01*
X0233283Y0077303D01*
X0232988Y0077106D01*
X0232732Y0076929D01*
X0232437Y0076693D01*
X0232181Y0076476D01*
X0231965Y0076280D01*
X0231846Y0076161D01*
X0231630Y0075945D01*
X0231472Y0075787D01*
X0231217Y0075492D01*
X0231098Y0075354D01*
X0230961Y0075177D01*
X0230744Y0074882D01*
X0230567Y0074626D01*
X0230350Y0074272D01*
X0230173Y0073957D01*
X0230016Y0073661D01*
X0229878Y0073366D01*
X0229760Y0073091D01*
X0229622Y0072736D01*
X0229504Y0072382D01*
X0229406Y0072028D01*
X0229327Y0071732D01*
X0229268Y0071457D01*
X0229209Y0071122D01*
X0229169Y0070866D01*
X0229130Y0070492D01*
X0229110Y0070236D01*
X0229091Y0069902D01*
X0229091Y0069665D01*
X0229202Y0068249D01*
X0229534Y0066867D01*
X0230077Y0065554D01*
X0230820Y0064343D01*
X0231743Y0063262D01*
X0232823Y0062340D01*
X0234035Y0061597D01*
X0235347Y0061053D01*
X0236729Y0060722D01*
X0238146Y0060610D01*
X0239562Y0060722D01*
X0240944Y0061053D01*
X0242257Y0061597D01*
X0243468Y0062340D01*
X0244549Y0063262D01*
X0245471Y0064343D01*
X0246214Y0065554D01*
X0246758Y0066867D01*
X0247089Y0068249D01*
X0247201Y0069665D01*
X0247201Y0069941D01*
X0247181Y0070276D01*
X0247161Y0070492D01*
X0247142Y0070709D01*
X0247122Y0070866D01*
X0247083Y0071122D01*
X0247043Y0071358D01*
X0246965Y0071732D01*
X0246886Y0072047D01*
X0246807Y0072323D01*
X0246728Y0072559D01*
X0246669Y0072736D01*
X0246571Y0072992D01*
X0246453Y0073287D01*
X0246315Y0073583D01*
X0246197Y0073819D01*
X0246079Y0074035D01*
X0245980Y0074213D01*
X0245823Y0074469D01*
X0245685Y0074685D01*
X0245508Y0074941D01*
X0245331Y0075177D01*
X0245173Y0075374D01*
X0245075Y0075492D01*
X0244917Y0075669D01*
X0244740Y0075866D01*
X0244524Y0076083D01*
X0244386Y0076220D01*
X0244169Y0076417D01*
X0244012Y0076555D01*
X0243776Y0076752D01*
X0243598Y0076890D01*
X0243303Y0077106D01*
X0243008Y0077303D01*
X0242654Y0077520D01*
X0242398Y0077657D01*
X0242181Y0077776D01*
X0242083Y0077815D01*
X0242083Y0079902D01*
X0248382Y0079902D01*
X0248382Y0059429D01*
X0248382Y0060001D02*
X0227909Y0060001D01*
X0227909Y0060393D02*
X0248382Y0060393D01*
X0248382Y0060785D02*
X0239826Y0060785D01*
X0241243Y0061177D02*
X0248382Y0061177D01*
X0248382Y0061570D02*
X0242190Y0061570D01*
X0242852Y0061962D02*
X0248382Y0061962D01*
X0248382Y0062354D02*
X0243485Y0062354D01*
X0243944Y0062746D02*
X0248382Y0062746D01*
X0248382Y0063138D02*
X0244403Y0063138D01*
X0244778Y0063531D02*
X0248382Y0063531D01*
X0248382Y0063923D02*
X0245113Y0063923D01*
X0245448Y0064315D02*
X0248382Y0064315D01*
X0248382Y0064707D02*
X0245695Y0064707D01*
X0245935Y0065099D02*
X0248382Y0065099D01*
X0248382Y0065492D02*
X0246175Y0065492D01*
X0246350Y0065884D02*
X0248382Y0065884D01*
X0248382Y0066276D02*
X0246513Y0066276D01*
X0246675Y0066668D02*
X0248382Y0066668D01*
X0248382Y0067060D02*
X0246804Y0067060D01*
X0246898Y0067453D02*
X0248382Y0067453D01*
X0248382Y0067845D02*
X0246992Y0067845D01*
X0247086Y0068237D02*
X0248382Y0068237D01*
X0248382Y0068629D02*
X0247119Y0068629D01*
X0247150Y0069022D02*
X0248382Y0069022D01*
X0248382Y0069414D02*
X0247181Y0069414D01*
X0247201Y0069806D02*
X0248382Y0069806D01*
X0248382Y0070198D02*
X0247186Y0070198D01*
X0247152Y0070590D02*
X0248382Y0070590D01*
X0248382Y0070983D02*
X0247104Y0070983D01*
X0247040Y0071375D02*
X0248382Y0071375D01*
X0248382Y0071767D02*
X0246956Y0071767D01*
X0246854Y0072159D02*
X0248382Y0072159D01*
X0248382Y0072551D02*
X0246731Y0072551D01*
X0246590Y0072944D02*
X0248382Y0072944D01*
X0248382Y0073336D02*
X0246430Y0073336D01*
X0246242Y0073728D02*
X0248382Y0073728D01*
X0248382Y0074120D02*
X0246032Y0074120D01*
X0245795Y0074513D02*
X0248382Y0074513D01*
X0248382Y0074905D02*
X0245533Y0074905D01*
X0245235Y0075297D02*
X0248382Y0075297D01*
X0248382Y0075689D02*
X0244899Y0075689D01*
X0244525Y0076081D02*
X0248382Y0076081D01*
X0248382Y0076474D02*
X0244105Y0076474D01*
X0243629Y0076866D02*
X0248382Y0076866D01*
X0248382Y0077258D02*
X0243076Y0077258D01*
X0242411Y0077650D02*
X0248382Y0077650D01*
X0248382Y0078042D02*
X0242083Y0078042D01*
X0242083Y0078435D02*
X0248382Y0078435D01*
X0248382Y0078827D02*
X0242083Y0078827D01*
X0242083Y0079219D02*
X0248382Y0079219D01*
X0248382Y0079611D02*
X0242083Y0079611D01*
X0234209Y0079611D02*
X0227909Y0079611D01*
X0227909Y0079219D02*
X0234209Y0079219D01*
X0234209Y0078827D02*
X0227909Y0078827D01*
X0227909Y0078435D02*
X0234209Y0078435D01*
X0234209Y0078042D02*
X0227909Y0078042D01*
X0227909Y0077650D02*
X0233875Y0077650D01*
X0233216Y0077258D02*
X0227909Y0077258D01*
X0227909Y0076866D02*
X0232653Y0076866D01*
X0232178Y0076474D02*
X0227909Y0076474D01*
X0227909Y0076081D02*
X0231766Y0076081D01*
X0231387Y0075689D02*
X0227909Y0075689D01*
X0227909Y0075297D02*
X0231054Y0075297D01*
X0230761Y0074905D02*
X0227909Y0074905D01*
X0227909Y0074513D02*
X0230498Y0074513D01*
X0230265Y0074120D02*
X0227909Y0074120D01*
X0227909Y0073728D02*
X0230051Y0073728D01*
X0229865Y0073336D02*
X0227909Y0073336D01*
X0227909Y0072944D02*
X0229703Y0072944D01*
X0229560Y0072551D02*
X0227909Y0072551D01*
X0227909Y0072159D02*
X0229442Y0072159D01*
X0229336Y0071767D02*
X0227909Y0071767D01*
X0227909Y0071375D02*
X0229253Y0071375D01*
X0229187Y0070983D02*
X0227909Y0070983D01*
X0227909Y0070590D02*
X0229140Y0070590D01*
X0229108Y0070198D02*
X0227909Y0070198D01*
X0227909Y0069806D02*
X0229091Y0069806D01*
X0229110Y0069414D02*
X0227909Y0069414D01*
X0227909Y0069022D02*
X0229141Y0069022D01*
X0229172Y0068629D02*
X0227909Y0068629D01*
X0227909Y0068237D02*
X0229205Y0068237D01*
X0229299Y0067845D02*
X0227909Y0067845D01*
X0227909Y0067453D02*
X0229393Y0067453D01*
X0229487Y0067060D02*
X0227909Y0067060D01*
X0227909Y0066668D02*
X0229616Y0066668D01*
X0229779Y0066276D02*
X0227909Y0066276D01*
X0227909Y0065884D02*
X0229941Y0065884D01*
X0230116Y0065492D02*
X0227909Y0065492D01*
X0227909Y0065099D02*
X0230356Y0065099D01*
X0230597Y0064707D02*
X0227909Y0064707D01*
X0227909Y0064315D02*
X0230844Y0064315D01*
X0231179Y0063923D02*
X0227909Y0063923D01*
X0227909Y0063531D02*
X0231514Y0063531D01*
X0231888Y0063138D02*
X0227909Y0063138D01*
X0227909Y0062746D02*
X0232347Y0062746D01*
X0232806Y0062354D02*
X0227909Y0062354D01*
X0227909Y0061962D02*
X0233440Y0061962D01*
X0234102Y0061570D02*
X0227909Y0061570D01*
X0227909Y0061177D02*
X0235048Y0061177D01*
X0236465Y0060785D02*
X0227909Y0060785D01*
X0284098Y0060785D02*
X0292654Y0060785D01*
X0292918Y0060722D02*
X0294335Y0060610D01*
X0295751Y0060722D01*
X0297133Y0061053D01*
X0298446Y0061597D01*
X0299657Y0062340D01*
X0300738Y0063262D01*
X0301660Y0064343D01*
X0302403Y0065554D01*
X0302947Y0066867D01*
X0303278Y0068249D01*
X0303390Y0069665D01*
X0303390Y0069941D01*
X0303370Y0070276D01*
X0303350Y0070492D01*
X0303331Y0070709D01*
X0303311Y0070866D01*
X0303272Y0071122D01*
X0303232Y0071358D01*
X0303154Y0071732D01*
X0303075Y0072047D01*
X0302996Y0072323D01*
X0302917Y0072559D01*
X0302858Y0072736D01*
X0302760Y0072992D01*
X0302642Y0073287D01*
X0302504Y0073583D01*
X0302386Y0073819D01*
X0302268Y0074035D01*
X0302169Y0074213D01*
X0302012Y0074469D01*
X0301874Y0074685D01*
X0301697Y0074941D01*
X0301520Y0075177D01*
X0301362Y0075374D01*
X0301264Y0075492D01*
X0301106Y0075669D01*
X0300929Y0075866D01*
X0300713Y0076083D01*
X0300575Y0076220D01*
X0300358Y0076417D01*
X0300201Y0076555D01*
X0299965Y0076752D01*
X0299787Y0076890D01*
X0299492Y0077106D01*
X0299197Y0077303D01*
X0298843Y0077520D01*
X0298587Y0077657D01*
X0298370Y0077776D01*
X0298272Y0077815D01*
X0298272Y0079902D01*
X0304571Y0079902D01*
X0304571Y0059429D01*
X0284098Y0059429D01*
X0284098Y0079902D01*
X0290398Y0079902D01*
X0290398Y0077815D01*
X0290260Y0077756D01*
X0290004Y0077618D01*
X0289728Y0077461D01*
X0289472Y0077303D01*
X0289177Y0077106D01*
X0288921Y0076929D01*
X0288626Y0076693D01*
X0288370Y0076476D01*
X0288154Y0076280D01*
X0288035Y0076161D01*
X0287819Y0075945D01*
X0287661Y0075787D01*
X0287406Y0075492D01*
X0287287Y0075354D01*
X0287150Y0075177D01*
X0286933Y0074882D01*
X0286756Y0074626D01*
X0286539Y0074272D01*
X0286362Y0073957D01*
X0286205Y0073661D01*
X0286067Y0073366D01*
X0285949Y0073091D01*
X0285811Y0072736D01*
X0285693Y0072382D01*
X0285594Y0072028D01*
X0285516Y0071732D01*
X0285457Y0071457D01*
X0285398Y0071122D01*
X0285358Y0070866D01*
X0285319Y0070492D01*
X0285299Y0070236D01*
X0285280Y0069902D01*
X0285280Y0069665D01*
X0285391Y0068249D01*
X0285723Y0066867D01*
X0286266Y0065554D01*
X0287009Y0064343D01*
X0287932Y0063262D01*
X0289012Y0062340D01*
X0290224Y0061597D01*
X0291536Y0061053D01*
X0292918Y0060722D01*
X0291237Y0061177D02*
X0284098Y0061177D01*
X0284098Y0061570D02*
X0290290Y0061570D01*
X0289629Y0061962D02*
X0284098Y0061962D01*
X0284098Y0062354D02*
X0288995Y0062354D01*
X0288536Y0062746D02*
X0284098Y0062746D01*
X0284098Y0063138D02*
X0288077Y0063138D01*
X0287703Y0063531D02*
X0284098Y0063531D01*
X0284098Y0063923D02*
X0287368Y0063923D01*
X0287033Y0064315D02*
X0284098Y0064315D01*
X0284098Y0064707D02*
X0286786Y0064707D01*
X0286545Y0065099D02*
X0284098Y0065099D01*
X0284098Y0065492D02*
X0286305Y0065492D01*
X0286130Y0065884D02*
X0284098Y0065884D01*
X0284098Y0066276D02*
X0285968Y0066276D01*
X0285805Y0066668D02*
X0284098Y0066668D01*
X0284098Y0067060D02*
X0285676Y0067060D01*
X0285582Y0067453D02*
X0284098Y0067453D01*
X0284098Y0067845D02*
X0285488Y0067845D01*
X0285394Y0068237D02*
X0284098Y0068237D01*
X0284098Y0068629D02*
X0285361Y0068629D01*
X0285330Y0069022D02*
X0284098Y0069022D01*
X0284098Y0069414D02*
X0285299Y0069414D01*
X0285280Y0069806D02*
X0284098Y0069806D01*
X0284098Y0070198D02*
X0285297Y0070198D01*
X0285329Y0070590D02*
X0284098Y0070590D01*
X0284098Y0070983D02*
X0285376Y0070983D01*
X0285442Y0071375D02*
X0284098Y0071375D01*
X0284098Y0071767D02*
X0285525Y0071767D01*
X0285631Y0072159D02*
X0284098Y0072159D01*
X0284098Y0072551D02*
X0285749Y0072551D01*
X0285892Y0072944D02*
X0284098Y0072944D01*
X0284098Y0073336D02*
X0286054Y0073336D01*
X0286240Y0073728D02*
X0284098Y0073728D01*
X0284098Y0074120D02*
X0286454Y0074120D01*
X0286687Y0074513D02*
X0284098Y0074513D01*
X0284098Y0074905D02*
X0286950Y0074905D01*
X0287243Y0075297D02*
X0284098Y0075297D01*
X0284098Y0075689D02*
X0287576Y0075689D01*
X0287955Y0076081D02*
X0284098Y0076081D01*
X0284098Y0076474D02*
X0288367Y0076474D01*
X0288842Y0076866D02*
X0284098Y0076866D01*
X0284098Y0077258D02*
X0289405Y0077258D01*
X0290064Y0077650D02*
X0284098Y0077650D01*
X0284098Y0078042D02*
X0290398Y0078042D01*
X0290398Y0078435D02*
X0284098Y0078435D01*
X0284098Y0078827D02*
X0290398Y0078827D01*
X0290398Y0079219D02*
X0284098Y0079219D01*
X0284098Y0079611D02*
X0290398Y0079611D01*
X0298272Y0079611D02*
X0304571Y0079611D01*
X0304571Y0079219D02*
X0298272Y0079219D01*
X0298272Y0078827D02*
X0304571Y0078827D01*
X0304571Y0078435D02*
X0298272Y0078435D01*
X0298272Y0078042D02*
X0304571Y0078042D01*
X0304571Y0077650D02*
X0298600Y0077650D01*
X0299265Y0077258D02*
X0304571Y0077258D01*
X0304571Y0076866D02*
X0299818Y0076866D01*
X0300294Y0076474D02*
X0304571Y0076474D01*
X0304571Y0076081D02*
X0300714Y0076081D01*
X0301088Y0075689D02*
X0304571Y0075689D01*
X0304571Y0075297D02*
X0301424Y0075297D01*
X0301722Y0074905D02*
X0304571Y0074905D01*
X0304571Y0074513D02*
X0301984Y0074513D01*
X0302221Y0074120D02*
X0304571Y0074120D01*
X0304571Y0073728D02*
X0302431Y0073728D01*
X0302619Y0073336D02*
X0304571Y0073336D01*
X0304571Y0072944D02*
X0302778Y0072944D01*
X0302920Y0072551D02*
X0304571Y0072551D01*
X0304571Y0072159D02*
X0303043Y0072159D01*
X0303145Y0071767D02*
X0304571Y0071767D01*
X0304571Y0071375D02*
X0303229Y0071375D01*
X0303293Y0070983D02*
X0304571Y0070983D01*
X0304571Y0070590D02*
X0303341Y0070590D01*
X0303375Y0070198D02*
X0304571Y0070198D01*
X0304571Y0069806D02*
X0303390Y0069806D01*
X0303370Y0069414D02*
X0304571Y0069414D01*
X0304571Y0069022D02*
X0303339Y0069022D01*
X0303308Y0068629D02*
X0304571Y0068629D01*
X0304571Y0068237D02*
X0303275Y0068237D01*
X0303181Y0067845D02*
X0304571Y0067845D01*
X0304571Y0067453D02*
X0303087Y0067453D01*
X0302993Y0067060D02*
X0304571Y0067060D01*
X0304571Y0066668D02*
X0302864Y0066668D01*
X0302702Y0066276D02*
X0304571Y0066276D01*
X0304571Y0065884D02*
X0302539Y0065884D01*
X0302364Y0065492D02*
X0304571Y0065492D01*
X0304571Y0065099D02*
X0302124Y0065099D01*
X0301884Y0064707D02*
X0304571Y0064707D01*
X0304571Y0064315D02*
X0301637Y0064315D01*
X0301302Y0063923D02*
X0304571Y0063923D01*
X0304571Y0063531D02*
X0300967Y0063531D01*
X0300592Y0063138D02*
X0304571Y0063138D01*
X0304571Y0062746D02*
X0300133Y0062746D01*
X0299674Y0062354D02*
X0304571Y0062354D01*
X0304571Y0061962D02*
X0299040Y0061962D01*
X0298379Y0061570D02*
X0304571Y0061570D01*
X0304571Y0061177D02*
X0297432Y0061177D01*
X0296015Y0060785D02*
X0304571Y0060785D01*
X0304571Y0060393D02*
X0284098Y0060393D01*
X0284098Y0060001D02*
X0304571Y0060001D01*
X0304571Y0059608D02*
X0284098Y0059608D01*
X0340287Y0059608D02*
X0360760Y0059608D01*
X0360760Y0059429D02*
X0340287Y0059429D01*
X0340287Y0079902D01*
X0346587Y0079902D01*
X0346587Y0077815D01*
X0346449Y0077756D01*
X0346193Y0077618D01*
X0345917Y0077461D01*
X0345661Y0077303D01*
X0345366Y0077106D01*
X0345110Y0076929D01*
X0344815Y0076693D01*
X0344559Y0076476D01*
X0344343Y0076280D01*
X0344224Y0076161D01*
X0344008Y0075945D01*
X0343850Y0075787D01*
X0343594Y0075492D01*
X0343476Y0075354D01*
X0343339Y0075177D01*
X0343122Y0074882D01*
X0342945Y0074626D01*
X0342728Y0074272D01*
X0342551Y0073957D01*
X0342394Y0073661D01*
X0342256Y0073366D01*
X0342138Y0073091D01*
X0342000Y0072736D01*
X0341882Y0072382D01*
X0341783Y0072028D01*
X0341705Y0071732D01*
X0341646Y0071457D01*
X0341587Y0071122D01*
X0341547Y0070866D01*
X0341508Y0070492D01*
X0341488Y0070236D01*
X0341469Y0069902D01*
X0341469Y0069665D01*
X0341580Y0068249D01*
X0341912Y0066867D01*
X0342455Y0065554D01*
X0343198Y0064343D01*
X0344121Y0063262D01*
X0345201Y0062340D01*
X0346413Y0061597D01*
X0347725Y0061053D01*
X0349107Y0060722D01*
X0350524Y0060610D01*
X0351940Y0060722D01*
X0353322Y0061053D01*
X0354635Y0061597D01*
X0355846Y0062340D01*
X0356927Y0063262D01*
X0357849Y0064343D01*
X0358592Y0065554D01*
X0359136Y0066867D01*
X0359467Y0068249D01*
X0359579Y0069665D01*
X0359579Y0069941D01*
X0359559Y0070276D01*
X0359539Y0070492D01*
X0359520Y0070709D01*
X0359500Y0070866D01*
X0359461Y0071122D01*
X0359421Y0071358D01*
X0359343Y0071732D01*
X0359264Y0072047D01*
X0359185Y0072323D01*
X0359106Y0072559D01*
X0359047Y0072736D01*
X0358949Y0072992D01*
X0358831Y0073287D01*
X0358693Y0073583D01*
X0358575Y0073819D01*
X0358457Y0074035D01*
X0358358Y0074213D01*
X0358201Y0074469D01*
X0358063Y0074685D01*
X0357886Y0074941D01*
X0357709Y0075177D01*
X0357551Y0075374D01*
X0357453Y0075492D01*
X0357295Y0075669D01*
X0357118Y0075866D01*
X0356902Y0076083D01*
X0356764Y0076220D01*
X0356547Y0076417D01*
X0356390Y0076555D01*
X0356154Y0076752D01*
X0355976Y0076890D01*
X0355681Y0077106D01*
X0355386Y0077303D01*
X0355031Y0077520D01*
X0354776Y0077657D01*
X0354559Y0077776D01*
X0354461Y0077815D01*
X0354461Y0079902D01*
X0360760Y0079902D01*
X0360760Y0059429D01*
X0360760Y0060001D02*
X0340287Y0060001D01*
X0340287Y0060393D02*
X0360760Y0060393D01*
X0360760Y0060785D02*
X0352204Y0060785D01*
X0353621Y0061177D02*
X0360760Y0061177D01*
X0360760Y0061570D02*
X0354568Y0061570D01*
X0355229Y0061962D02*
X0360760Y0061962D01*
X0360760Y0062354D02*
X0355863Y0062354D01*
X0356322Y0062746D02*
X0360760Y0062746D01*
X0360760Y0063138D02*
X0356781Y0063138D01*
X0357156Y0063531D02*
X0360760Y0063531D01*
X0360760Y0063923D02*
X0357491Y0063923D01*
X0357826Y0064315D02*
X0360760Y0064315D01*
X0360760Y0064707D02*
X0358073Y0064707D01*
X0358313Y0065099D02*
X0360760Y0065099D01*
X0360760Y0065492D02*
X0358553Y0065492D01*
X0358728Y0065884D02*
X0360760Y0065884D01*
X0360760Y0066276D02*
X0358891Y0066276D01*
X0359053Y0066668D02*
X0360760Y0066668D01*
X0360760Y0067060D02*
X0359182Y0067060D01*
X0359276Y0067453D02*
X0360760Y0067453D01*
X0360760Y0067845D02*
X0359370Y0067845D01*
X0359464Y0068237D02*
X0360760Y0068237D01*
X0360760Y0068629D02*
X0359497Y0068629D01*
X0359528Y0069022D02*
X0360760Y0069022D01*
X0360760Y0069414D02*
X0359559Y0069414D01*
X0359579Y0069806D02*
X0360760Y0069806D01*
X0360760Y0070198D02*
X0359564Y0070198D01*
X0359530Y0070590D02*
X0360760Y0070590D01*
X0360760Y0070983D02*
X0359482Y0070983D01*
X0359418Y0071375D02*
X0360760Y0071375D01*
X0360760Y0071767D02*
X0359334Y0071767D01*
X0359232Y0072159D02*
X0360760Y0072159D01*
X0360760Y0072551D02*
X0359109Y0072551D01*
X0358967Y0072944D02*
X0360760Y0072944D01*
X0360760Y0073336D02*
X0358808Y0073336D01*
X0358620Y0073728D02*
X0360760Y0073728D01*
X0360760Y0074120D02*
X0358410Y0074120D01*
X0358173Y0074513D02*
X0360760Y0074513D01*
X0360760Y0074905D02*
X0357911Y0074905D01*
X0357613Y0075297D02*
X0360760Y0075297D01*
X0360760Y0075689D02*
X0357277Y0075689D01*
X0356903Y0076081D02*
X0360760Y0076081D01*
X0360760Y0076474D02*
X0356483Y0076474D01*
X0356007Y0076866D02*
X0360760Y0076866D01*
X0360760Y0077258D02*
X0355454Y0077258D01*
X0354789Y0077650D02*
X0360760Y0077650D01*
X0360760Y0078042D02*
X0354461Y0078042D01*
X0354461Y0078435D02*
X0360760Y0078435D01*
X0360760Y0078827D02*
X0354461Y0078827D01*
X0354461Y0079219D02*
X0360760Y0079219D01*
X0360760Y0079611D02*
X0354461Y0079611D01*
X0346587Y0079611D02*
X0340287Y0079611D01*
X0340287Y0079219D02*
X0346587Y0079219D01*
X0346587Y0078827D02*
X0340287Y0078827D01*
X0340287Y0078435D02*
X0346587Y0078435D01*
X0346587Y0078042D02*
X0340287Y0078042D01*
X0340287Y0077650D02*
X0346253Y0077650D01*
X0345594Y0077258D02*
X0340287Y0077258D01*
X0340287Y0076866D02*
X0345031Y0076866D01*
X0344556Y0076474D02*
X0340287Y0076474D01*
X0340287Y0076081D02*
X0344144Y0076081D01*
X0343765Y0075689D02*
X0340287Y0075689D01*
X0340287Y0075297D02*
X0343432Y0075297D01*
X0343139Y0074905D02*
X0340287Y0074905D01*
X0340287Y0074513D02*
X0342876Y0074513D01*
X0342643Y0074120D02*
X0340287Y0074120D01*
X0340287Y0073728D02*
X0342429Y0073728D01*
X0342243Y0073336D02*
X0340287Y0073336D01*
X0340287Y0072944D02*
X0342081Y0072944D01*
X0341938Y0072551D02*
X0340287Y0072551D01*
X0340287Y0072159D02*
X0341820Y0072159D01*
X0341714Y0071767D02*
X0340287Y0071767D01*
X0340287Y0071375D02*
X0341631Y0071375D01*
X0341565Y0070983D02*
X0340287Y0070983D01*
X0340287Y0070590D02*
X0341518Y0070590D01*
X0341486Y0070198D02*
X0340287Y0070198D01*
X0340287Y0069806D02*
X0341469Y0069806D01*
X0341488Y0069414D02*
X0340287Y0069414D01*
X0340287Y0069022D02*
X0341519Y0069022D01*
X0341550Y0068629D02*
X0340287Y0068629D01*
X0340287Y0068237D02*
X0341583Y0068237D01*
X0341677Y0067845D02*
X0340287Y0067845D01*
X0340287Y0067453D02*
X0341771Y0067453D01*
X0341865Y0067060D02*
X0340287Y0067060D01*
X0340287Y0066668D02*
X0341994Y0066668D01*
X0342157Y0066276D02*
X0340287Y0066276D01*
X0340287Y0065884D02*
X0342319Y0065884D01*
X0342494Y0065492D02*
X0340287Y0065492D01*
X0340287Y0065099D02*
X0342734Y0065099D01*
X0342975Y0064707D02*
X0340287Y0064707D01*
X0340287Y0064315D02*
X0343222Y0064315D01*
X0343557Y0063923D02*
X0340287Y0063923D01*
X0340287Y0063531D02*
X0343892Y0063531D01*
X0344266Y0063138D02*
X0340287Y0063138D01*
X0340287Y0062746D02*
X0344725Y0062746D01*
X0345184Y0062354D02*
X0340287Y0062354D01*
X0340287Y0061962D02*
X0345818Y0061962D01*
X0346479Y0061570D02*
X0340287Y0061570D01*
X0340287Y0061177D02*
X0347426Y0061177D01*
X0348843Y0060785D02*
X0340287Y0060785D01*
X0396476Y0060785D02*
X0405032Y0060785D01*
X0405296Y0060722D02*
X0406713Y0060610D01*
X0408129Y0060722D01*
X0409511Y0061053D01*
X0410824Y0061597D01*
X0412035Y0062340D01*
X0413116Y0063262D01*
X0414038Y0064343D01*
X0414781Y0065554D01*
X0415325Y0066867D01*
X0415656Y0068249D01*
X0415768Y0069665D01*
X0415768Y0069941D01*
X0415748Y0070276D01*
X0415728Y0070492D01*
X0415709Y0070709D01*
X0415689Y0070866D01*
X0415650Y0071122D01*
X0415610Y0071358D01*
X0415531Y0071732D01*
X0415453Y0072047D01*
X0415374Y0072323D01*
X0415295Y0072559D01*
X0415236Y0072736D01*
X0415138Y0072992D01*
X0415020Y0073287D01*
X0414882Y0073583D01*
X0414764Y0073819D01*
X0414646Y0074035D01*
X0414547Y0074213D01*
X0414390Y0074469D01*
X0414252Y0074685D01*
X0414075Y0074941D01*
X0413898Y0075177D01*
X0413740Y0075374D01*
X0413642Y0075492D01*
X0413484Y0075669D01*
X0413307Y0075866D01*
X0413091Y0076083D01*
X0412953Y0076220D01*
X0412736Y0076417D01*
X0412579Y0076555D01*
X0412343Y0076752D01*
X0412165Y0076890D01*
X0411870Y0077106D01*
X0411575Y0077303D01*
X0411220Y0077520D01*
X0410965Y0077657D01*
X0410748Y0077776D01*
X0410650Y0077815D01*
X0410650Y0079902D01*
X0416949Y0079902D01*
X0416949Y0059429D01*
X0396476Y0059429D01*
X0396476Y0079902D01*
X0402776Y0079902D01*
X0402776Y0077815D01*
X0402638Y0077756D01*
X0402382Y0077618D01*
X0402106Y0077461D01*
X0401850Y0077303D01*
X0401555Y0077106D01*
X0401299Y0076929D01*
X0401004Y0076693D01*
X0400748Y0076476D01*
X0400531Y0076280D01*
X0400413Y0076161D01*
X0400197Y0075945D01*
X0400039Y0075787D01*
X0399783Y0075492D01*
X0399665Y0075354D01*
X0399528Y0075177D01*
X0399311Y0074882D01*
X0399134Y0074626D01*
X0398917Y0074272D01*
X0398740Y0073957D01*
X0398583Y0073661D01*
X0398445Y0073366D01*
X0398327Y0073091D01*
X0398189Y0072736D01*
X0398071Y0072382D01*
X0397972Y0072028D01*
X0397894Y0071732D01*
X0397835Y0071457D01*
X0397776Y0071122D01*
X0397736Y0070866D01*
X0397697Y0070492D01*
X0397677Y0070236D01*
X0397657Y0069902D01*
X0397657Y0069665D01*
X0397769Y0068249D01*
X0398101Y0066867D01*
X0398644Y0065554D01*
X0399387Y0064343D01*
X0400310Y0063262D01*
X0401390Y0062340D01*
X0402602Y0061597D01*
X0403914Y0061053D01*
X0405296Y0060722D01*
X0403615Y0061177D02*
X0396476Y0061177D01*
X0396476Y0061570D02*
X0402668Y0061570D01*
X0402007Y0061962D02*
X0396476Y0061962D01*
X0396476Y0062354D02*
X0401373Y0062354D01*
X0400914Y0062746D02*
X0396476Y0062746D01*
X0396476Y0063138D02*
X0400455Y0063138D01*
X0400081Y0063531D02*
X0396476Y0063531D01*
X0396476Y0063923D02*
X0399746Y0063923D01*
X0399411Y0064315D02*
X0396476Y0064315D01*
X0396476Y0064707D02*
X0399164Y0064707D01*
X0398923Y0065099D02*
X0396476Y0065099D01*
X0396476Y0065492D02*
X0398683Y0065492D01*
X0398508Y0065884D02*
X0396476Y0065884D01*
X0396476Y0066276D02*
X0398345Y0066276D01*
X0398183Y0066668D02*
X0396476Y0066668D01*
X0396476Y0067060D02*
X0398054Y0067060D01*
X0397960Y0067453D02*
X0396476Y0067453D01*
X0396476Y0067845D02*
X0397866Y0067845D01*
X0397772Y0068237D02*
X0396476Y0068237D01*
X0396476Y0068629D02*
X0397739Y0068629D01*
X0397708Y0069022D02*
X0396476Y0069022D01*
X0396476Y0069414D02*
X0397677Y0069414D01*
X0397657Y0069806D02*
X0396476Y0069806D01*
X0396476Y0070198D02*
X0397675Y0070198D01*
X0397707Y0070590D02*
X0396476Y0070590D01*
X0396476Y0070983D02*
X0397754Y0070983D01*
X0397820Y0071375D02*
X0396476Y0071375D01*
X0396476Y0071767D02*
X0397903Y0071767D01*
X0398009Y0072159D02*
X0396476Y0072159D01*
X0396476Y0072551D02*
X0398127Y0072551D01*
X0398270Y0072944D02*
X0396476Y0072944D01*
X0396476Y0073336D02*
X0398432Y0073336D01*
X0398618Y0073728D02*
X0396476Y0073728D01*
X0396476Y0074120D02*
X0398832Y0074120D01*
X0399065Y0074513D02*
X0396476Y0074513D01*
X0396476Y0074905D02*
X0399328Y0074905D01*
X0399621Y0075297D02*
X0396476Y0075297D01*
X0396476Y0075689D02*
X0399954Y0075689D01*
X0400333Y0076081D02*
X0396476Y0076081D01*
X0396476Y0076474D02*
X0400745Y0076474D01*
X0401220Y0076866D02*
X0396476Y0076866D01*
X0396476Y0077258D02*
X0401783Y0077258D01*
X0402442Y0077650D02*
X0396476Y0077650D01*
X0396476Y0078042D02*
X0402776Y0078042D01*
X0402776Y0078435D02*
X0396476Y0078435D01*
X0396476Y0078827D02*
X0402776Y0078827D01*
X0402776Y0079219D02*
X0396476Y0079219D01*
X0396476Y0079611D02*
X0402776Y0079611D01*
X0410650Y0079611D02*
X0416949Y0079611D01*
X0416949Y0079219D02*
X0410650Y0079219D01*
X0410650Y0078827D02*
X0416949Y0078827D01*
X0416949Y0078435D02*
X0410650Y0078435D01*
X0410650Y0078042D02*
X0416949Y0078042D01*
X0416949Y0077650D02*
X0410978Y0077650D01*
X0411643Y0077258D02*
X0416949Y0077258D01*
X0416949Y0076866D02*
X0412196Y0076866D01*
X0412672Y0076474D02*
X0416949Y0076474D01*
X0416949Y0076081D02*
X0413092Y0076081D01*
X0413466Y0075689D02*
X0416949Y0075689D01*
X0416949Y0075297D02*
X0413802Y0075297D01*
X0414100Y0074905D02*
X0416949Y0074905D01*
X0416949Y0074513D02*
X0414362Y0074513D01*
X0414599Y0074120D02*
X0416949Y0074120D01*
X0416949Y0073728D02*
X0414809Y0073728D01*
X0414997Y0073336D02*
X0416949Y0073336D01*
X0416949Y0072944D02*
X0415156Y0072944D01*
X0415298Y0072551D02*
X0416949Y0072551D01*
X0416949Y0072159D02*
X0415421Y0072159D01*
X0415523Y0071767D02*
X0416949Y0071767D01*
X0416949Y0071375D02*
X0415607Y0071375D01*
X0415671Y0070983D02*
X0416949Y0070983D01*
X0416949Y0070590D02*
X0415719Y0070590D01*
X0415753Y0070198D02*
X0416949Y0070198D01*
X0416949Y0069806D02*
X0415768Y0069806D01*
X0415748Y0069414D02*
X0416949Y0069414D01*
X0416949Y0069022D02*
X0415717Y0069022D01*
X0415686Y0068629D02*
X0416949Y0068629D01*
X0416949Y0068237D02*
X0415653Y0068237D01*
X0415559Y0067845D02*
X0416949Y0067845D01*
X0416949Y0067453D02*
X0415465Y0067453D01*
X0415371Y0067060D02*
X0416949Y0067060D01*
X0416949Y0066668D02*
X0415242Y0066668D01*
X0415080Y0066276D02*
X0416949Y0066276D01*
X0416949Y0065884D02*
X0414917Y0065884D01*
X0414742Y0065492D02*
X0416949Y0065492D01*
X0416949Y0065099D02*
X0414502Y0065099D01*
X0414262Y0064707D02*
X0416949Y0064707D01*
X0416949Y0064315D02*
X0414015Y0064315D01*
X0413680Y0063923D02*
X0416949Y0063923D01*
X0416949Y0063531D02*
X0413345Y0063531D01*
X0412970Y0063138D02*
X0416949Y0063138D01*
X0416949Y0062746D02*
X0412511Y0062746D01*
X0412052Y0062354D02*
X0416949Y0062354D01*
X0416949Y0061962D02*
X0411418Y0061962D01*
X0410757Y0061570D02*
X0416949Y0061570D01*
X0416949Y0061177D02*
X0409810Y0061177D01*
X0408393Y0060785D02*
X0416949Y0060785D01*
X0416949Y0060393D02*
X0396476Y0060393D01*
X0396476Y0060001D02*
X0416949Y0060001D01*
X0416949Y0059608D02*
X0396476Y0059608D01*
X0452665Y0059608D02*
X0473138Y0059608D01*
X0473138Y0059429D02*
X0452665Y0059429D01*
X0452665Y0079902D01*
X0458965Y0079902D01*
X0458965Y0077815D01*
X0458827Y0077756D01*
X0458571Y0077618D01*
X0458295Y0077461D01*
X0458039Y0077303D01*
X0457744Y0077106D01*
X0457488Y0076929D01*
X0457193Y0076693D01*
X0456937Y0076476D01*
X0456720Y0076280D01*
X0456602Y0076161D01*
X0456386Y0075945D01*
X0456228Y0075787D01*
X0455972Y0075492D01*
X0455854Y0075354D01*
X0455717Y0075177D01*
X0455500Y0074882D01*
X0455323Y0074626D01*
X0455106Y0074272D01*
X0454929Y0073957D01*
X0454772Y0073661D01*
X0454634Y0073366D01*
X0454516Y0073091D01*
X0454378Y0072736D01*
X0454260Y0072382D01*
X0454161Y0072028D01*
X0454083Y0071732D01*
X0454024Y0071457D01*
X0453965Y0071122D01*
X0453925Y0070866D01*
X0453886Y0070492D01*
X0453866Y0070236D01*
X0453846Y0069902D01*
X0453846Y0069665D01*
X0453958Y0068249D01*
X0454290Y0066867D01*
X0454833Y0065554D01*
X0455576Y0064343D01*
X0456499Y0063262D01*
X0457579Y0062340D01*
X0458791Y0061597D01*
X0460103Y0061053D01*
X0461485Y0060722D01*
X0462902Y0060610D01*
X0464318Y0060722D01*
X0465700Y0061053D01*
X0467013Y0061597D01*
X0468224Y0062340D01*
X0469305Y0063262D01*
X0470227Y0064343D01*
X0470970Y0065554D01*
X0471514Y0066867D01*
X0471845Y0068249D01*
X0471957Y0069665D01*
X0471957Y0069941D01*
X0471937Y0070276D01*
X0471917Y0070492D01*
X0471898Y0070709D01*
X0471878Y0070866D01*
X0471839Y0071122D01*
X0471799Y0071358D01*
X0471720Y0071732D01*
X0471642Y0072047D01*
X0471563Y0072323D01*
X0471484Y0072559D01*
X0471425Y0072736D01*
X0471327Y0072992D01*
X0471209Y0073287D01*
X0471071Y0073583D01*
X0470953Y0073819D01*
X0470835Y0074035D01*
X0470736Y0074213D01*
X0470579Y0074469D01*
X0470441Y0074685D01*
X0470264Y0074941D01*
X0470087Y0075177D01*
X0469929Y0075374D01*
X0469831Y0075492D01*
X0469673Y0075669D01*
X0469496Y0075866D01*
X0469280Y0076083D01*
X0469142Y0076220D01*
X0468925Y0076417D01*
X0468768Y0076555D01*
X0468531Y0076752D01*
X0468354Y0076890D01*
X0468059Y0077106D01*
X0467764Y0077303D01*
X0467409Y0077520D01*
X0467154Y0077657D01*
X0466937Y0077776D01*
X0466839Y0077815D01*
X0466839Y0079902D01*
X0473138Y0079902D01*
X0473138Y0059429D01*
X0473138Y0060001D02*
X0452665Y0060001D01*
X0452665Y0060393D02*
X0473138Y0060393D01*
X0473138Y0060785D02*
X0464582Y0060785D01*
X0465999Y0061177D02*
X0473138Y0061177D01*
X0473138Y0061570D02*
X0466946Y0061570D01*
X0467607Y0061962D02*
X0473138Y0061962D01*
X0473138Y0062354D02*
X0468241Y0062354D01*
X0468700Y0062746D02*
X0473138Y0062746D01*
X0473138Y0063138D02*
X0469159Y0063138D01*
X0469534Y0063531D02*
X0473138Y0063531D01*
X0473138Y0063923D02*
X0469869Y0063923D01*
X0470204Y0064315D02*
X0473138Y0064315D01*
X0473138Y0064707D02*
X0470451Y0064707D01*
X0470691Y0065099D02*
X0473138Y0065099D01*
X0473138Y0065492D02*
X0470931Y0065492D01*
X0471106Y0065884D02*
X0473138Y0065884D01*
X0473138Y0066276D02*
X0471269Y0066276D01*
X0471431Y0066668D02*
X0473138Y0066668D01*
X0473138Y0067060D02*
X0471560Y0067060D01*
X0471654Y0067453D02*
X0473138Y0067453D01*
X0473138Y0067845D02*
X0471748Y0067845D01*
X0471842Y0068237D02*
X0473138Y0068237D01*
X0473138Y0068629D02*
X0471875Y0068629D01*
X0471906Y0069022D02*
X0473138Y0069022D01*
X0473138Y0069414D02*
X0471937Y0069414D01*
X0471957Y0069806D02*
X0473138Y0069806D01*
X0473138Y0070198D02*
X0471942Y0070198D01*
X0471908Y0070590D02*
X0473138Y0070590D01*
X0473138Y0070983D02*
X0471860Y0070983D01*
X0471796Y0071375D02*
X0473138Y0071375D01*
X0473138Y0071767D02*
X0471712Y0071767D01*
X0471610Y0072159D02*
X0473138Y0072159D01*
X0473138Y0072551D02*
X0471487Y0072551D01*
X0471345Y0072944D02*
X0473138Y0072944D01*
X0473138Y0073336D02*
X0471186Y0073336D01*
X0470998Y0073728D02*
X0473138Y0073728D01*
X0473138Y0074120D02*
X0470787Y0074120D01*
X0470551Y0074513D02*
X0473138Y0074513D01*
X0473138Y0074905D02*
X0470289Y0074905D01*
X0469991Y0075297D02*
X0473138Y0075297D01*
X0473138Y0075689D02*
X0469655Y0075689D01*
X0469281Y0076081D02*
X0473138Y0076081D01*
X0473138Y0076474D02*
X0468861Y0076474D01*
X0468385Y0076866D02*
X0473138Y0076866D01*
X0473138Y0077258D02*
X0467831Y0077258D01*
X0467167Y0077650D02*
X0473138Y0077650D01*
X0473138Y0078042D02*
X0466839Y0078042D01*
X0466839Y0078435D02*
X0473138Y0078435D01*
X0473138Y0078827D02*
X0466839Y0078827D01*
X0466839Y0079219D02*
X0473138Y0079219D01*
X0473138Y0079611D02*
X0466839Y0079611D01*
X0458965Y0079611D02*
X0452665Y0079611D01*
X0452665Y0079219D02*
X0458965Y0079219D01*
X0458965Y0078827D02*
X0452665Y0078827D01*
X0452665Y0078435D02*
X0458965Y0078435D01*
X0458965Y0078042D02*
X0452665Y0078042D01*
X0452665Y0077650D02*
X0458631Y0077650D01*
X0457972Y0077258D02*
X0452665Y0077258D01*
X0452665Y0076866D02*
X0457409Y0076866D01*
X0456934Y0076474D02*
X0452665Y0076474D01*
X0452665Y0076081D02*
X0456522Y0076081D01*
X0456143Y0075689D02*
X0452665Y0075689D01*
X0452665Y0075297D02*
X0455810Y0075297D01*
X0455517Y0074905D02*
X0452665Y0074905D01*
X0452665Y0074513D02*
X0455254Y0074513D01*
X0455021Y0074120D02*
X0452665Y0074120D01*
X0452665Y0073728D02*
X0454807Y0073728D01*
X0454621Y0073336D02*
X0452665Y0073336D01*
X0452665Y0072944D02*
X0454459Y0072944D01*
X0454316Y0072551D02*
X0452665Y0072551D01*
X0452665Y0072159D02*
X0454198Y0072159D01*
X0454092Y0071767D02*
X0452665Y0071767D01*
X0452665Y0071375D02*
X0454009Y0071375D01*
X0453943Y0070983D02*
X0452665Y0070983D01*
X0452665Y0070590D02*
X0453896Y0070590D01*
X0453864Y0070198D02*
X0452665Y0070198D01*
X0452665Y0069806D02*
X0453846Y0069806D01*
X0453866Y0069414D02*
X0452665Y0069414D01*
X0452665Y0069022D02*
X0453897Y0069022D01*
X0453928Y0068629D02*
X0452665Y0068629D01*
X0452665Y0068237D02*
X0453961Y0068237D01*
X0454055Y0067845D02*
X0452665Y0067845D01*
X0452665Y0067453D02*
X0454149Y0067453D01*
X0454243Y0067060D02*
X0452665Y0067060D01*
X0452665Y0066668D02*
X0454372Y0066668D01*
X0454534Y0066276D02*
X0452665Y0066276D01*
X0452665Y0065884D02*
X0454697Y0065884D01*
X0454872Y0065492D02*
X0452665Y0065492D01*
X0452665Y0065099D02*
X0455112Y0065099D01*
X0455353Y0064707D02*
X0452665Y0064707D01*
X0452665Y0064315D02*
X0455600Y0064315D01*
X0455935Y0063923D02*
X0452665Y0063923D01*
X0452665Y0063531D02*
X0456270Y0063531D01*
X0456644Y0063138D02*
X0452665Y0063138D01*
X0452665Y0062746D02*
X0457103Y0062746D01*
X0457562Y0062354D02*
X0452665Y0062354D01*
X0452665Y0061962D02*
X0458196Y0061962D01*
X0458857Y0061570D02*
X0452665Y0061570D01*
X0452665Y0061177D02*
X0459804Y0061177D01*
X0461221Y0060785D02*
X0452665Y0060785D01*
X0508854Y0060785D02*
X0517410Y0060785D01*
X0517674Y0060722D02*
X0519091Y0060610D01*
X0520507Y0060722D01*
X0521889Y0061053D01*
X0523201Y0061597D01*
X0524413Y0062340D01*
X0525493Y0063262D01*
X0526416Y0064343D01*
X0527159Y0065554D01*
X0527702Y0066867D01*
X0528034Y0068249D01*
X0528146Y0069665D01*
X0528146Y0069941D01*
X0528126Y0070276D01*
X0528106Y0070492D01*
X0528087Y0070709D01*
X0528067Y0070866D01*
X0528028Y0071122D01*
X0527988Y0071358D01*
X0527909Y0071732D01*
X0527831Y0072047D01*
X0527752Y0072323D01*
X0527673Y0072559D01*
X0527614Y0072736D01*
X0527516Y0072992D01*
X0527398Y0073287D01*
X0527260Y0073583D01*
X0527142Y0073819D01*
X0527024Y0074035D01*
X0526925Y0074213D01*
X0526768Y0074469D01*
X0526630Y0074685D01*
X0526453Y0074941D01*
X0526276Y0075177D01*
X0526118Y0075374D01*
X0526020Y0075492D01*
X0525862Y0075669D01*
X0525685Y0075866D01*
X0525469Y0076083D01*
X0525331Y0076220D01*
X0525114Y0076417D01*
X0524957Y0076555D01*
X0524720Y0076752D01*
X0524543Y0076890D01*
X0524248Y0077106D01*
X0523953Y0077303D01*
X0523598Y0077520D01*
X0523343Y0077657D01*
X0523126Y0077776D01*
X0523028Y0077815D01*
X0523028Y0079902D01*
X0529327Y0079902D01*
X0529327Y0059429D01*
X0508854Y0059429D01*
X0508854Y0079902D01*
X0515154Y0079902D01*
X0515154Y0077815D01*
X0515016Y0077756D01*
X0514760Y0077618D01*
X0514484Y0077461D01*
X0514228Y0077303D01*
X0513933Y0077106D01*
X0513677Y0076929D01*
X0513382Y0076693D01*
X0513126Y0076476D01*
X0512909Y0076280D01*
X0512791Y0076161D01*
X0512575Y0075945D01*
X0512417Y0075787D01*
X0512161Y0075492D01*
X0512043Y0075354D01*
X0511906Y0075177D01*
X0511689Y0074882D01*
X0511512Y0074626D01*
X0511295Y0074272D01*
X0511118Y0073957D01*
X0510961Y0073661D01*
X0510823Y0073366D01*
X0510705Y0073091D01*
X0510567Y0072736D01*
X0510449Y0072382D01*
X0510350Y0072028D01*
X0510272Y0071732D01*
X0510213Y0071457D01*
X0510154Y0071122D01*
X0510114Y0070866D01*
X0510075Y0070492D01*
X0510055Y0070236D01*
X0510035Y0069902D01*
X0510035Y0069665D01*
X0510147Y0068249D01*
X0510479Y0066867D01*
X0511022Y0065554D01*
X0511765Y0064343D01*
X0512688Y0063262D01*
X0513768Y0062340D01*
X0514980Y0061597D01*
X0516292Y0061053D01*
X0517674Y0060722D01*
X0515993Y0061177D02*
X0508854Y0061177D01*
X0508854Y0061570D02*
X0515046Y0061570D01*
X0514385Y0061962D02*
X0508854Y0061962D01*
X0508854Y0062354D02*
X0513751Y0062354D01*
X0513292Y0062746D02*
X0508854Y0062746D01*
X0508854Y0063138D02*
X0512833Y0063138D01*
X0512459Y0063531D02*
X0508854Y0063531D01*
X0508854Y0063923D02*
X0512124Y0063923D01*
X0511789Y0064315D02*
X0508854Y0064315D01*
X0508854Y0064707D02*
X0511542Y0064707D01*
X0511301Y0065099D02*
X0508854Y0065099D01*
X0508854Y0065492D02*
X0511061Y0065492D01*
X0510886Y0065884D02*
X0508854Y0065884D01*
X0508854Y0066276D02*
X0510723Y0066276D01*
X0510561Y0066668D02*
X0508854Y0066668D01*
X0508854Y0067060D02*
X0510432Y0067060D01*
X0510338Y0067453D02*
X0508854Y0067453D01*
X0508854Y0067845D02*
X0510244Y0067845D01*
X0510150Y0068237D02*
X0508854Y0068237D01*
X0508854Y0068629D02*
X0510117Y0068629D01*
X0510086Y0069022D02*
X0508854Y0069022D01*
X0508854Y0069414D02*
X0510055Y0069414D01*
X0510035Y0069806D02*
X0508854Y0069806D01*
X0508854Y0070198D02*
X0510053Y0070198D01*
X0510085Y0070590D02*
X0508854Y0070590D01*
X0508854Y0070983D02*
X0510132Y0070983D01*
X0510198Y0071375D02*
X0508854Y0071375D01*
X0508854Y0071767D02*
X0510281Y0071767D01*
X0510387Y0072159D02*
X0508854Y0072159D01*
X0508854Y0072551D02*
X0510505Y0072551D01*
X0510648Y0072944D02*
X0508854Y0072944D01*
X0508854Y0073336D02*
X0510810Y0073336D01*
X0510996Y0073728D02*
X0508854Y0073728D01*
X0508854Y0074120D02*
X0511210Y0074120D01*
X0511442Y0074513D02*
X0508854Y0074513D01*
X0508854Y0074905D02*
X0511706Y0074905D01*
X0511999Y0075297D02*
X0508854Y0075297D01*
X0508854Y0075689D02*
X0512332Y0075689D01*
X0512711Y0076081D02*
X0508854Y0076081D01*
X0508854Y0076474D02*
X0513123Y0076474D01*
X0513598Y0076866D02*
X0508854Y0076866D01*
X0508854Y0077258D02*
X0514161Y0077258D01*
X0514819Y0077650D02*
X0508854Y0077650D01*
X0508854Y0078042D02*
X0515154Y0078042D01*
X0515154Y0078435D02*
X0508854Y0078435D01*
X0508854Y0078827D02*
X0515154Y0078827D01*
X0515154Y0079219D02*
X0508854Y0079219D01*
X0508854Y0079611D02*
X0515154Y0079611D01*
X0523028Y0079611D02*
X0529327Y0079611D01*
X0529327Y0079219D02*
X0523028Y0079219D01*
X0523028Y0078827D02*
X0529327Y0078827D01*
X0529327Y0078435D02*
X0523028Y0078435D01*
X0523028Y0078042D02*
X0529327Y0078042D01*
X0529327Y0077650D02*
X0523356Y0077650D01*
X0524020Y0077258D02*
X0529327Y0077258D01*
X0529327Y0076866D02*
X0524574Y0076866D01*
X0525050Y0076474D02*
X0529327Y0076474D01*
X0529327Y0076081D02*
X0525470Y0076081D01*
X0525844Y0075689D02*
X0529327Y0075689D01*
X0529327Y0075297D02*
X0526180Y0075297D01*
X0526478Y0074905D02*
X0529327Y0074905D01*
X0529327Y0074513D02*
X0526740Y0074513D01*
X0526976Y0074120D02*
X0529327Y0074120D01*
X0529327Y0073728D02*
X0527187Y0073728D01*
X0527375Y0073336D02*
X0529327Y0073336D01*
X0529327Y0072944D02*
X0527534Y0072944D01*
X0527676Y0072551D02*
X0529327Y0072551D01*
X0529327Y0072159D02*
X0527799Y0072159D01*
X0527901Y0071767D02*
X0529327Y0071767D01*
X0529327Y0071375D02*
X0527985Y0071375D01*
X0528049Y0070983D02*
X0529327Y0070983D01*
X0529327Y0070590D02*
X0528097Y0070590D01*
X0528131Y0070198D02*
X0529327Y0070198D01*
X0529327Y0069806D02*
X0528146Y0069806D01*
X0528126Y0069414D02*
X0529327Y0069414D01*
X0529327Y0069022D02*
X0528095Y0069022D01*
X0528064Y0068629D02*
X0529327Y0068629D01*
X0529327Y0068237D02*
X0528031Y0068237D01*
X0527937Y0067845D02*
X0529327Y0067845D01*
X0529327Y0067453D02*
X0527843Y0067453D01*
X0527749Y0067060D02*
X0529327Y0067060D01*
X0529327Y0066668D02*
X0527620Y0066668D01*
X0527458Y0066276D02*
X0529327Y0066276D01*
X0529327Y0065884D02*
X0527295Y0065884D01*
X0527120Y0065492D02*
X0529327Y0065492D01*
X0529327Y0065099D02*
X0526880Y0065099D01*
X0526640Y0064707D02*
X0529327Y0064707D01*
X0529327Y0064315D02*
X0526392Y0064315D01*
X0526058Y0063923D02*
X0529327Y0063923D01*
X0529327Y0063531D02*
X0525723Y0063531D01*
X0525348Y0063138D02*
X0529327Y0063138D01*
X0529327Y0062746D02*
X0524889Y0062746D01*
X0524430Y0062354D02*
X0529327Y0062354D01*
X0529327Y0061962D02*
X0523796Y0061962D01*
X0523135Y0061570D02*
X0529327Y0061570D01*
X0529327Y0061177D02*
X0522188Y0061177D01*
X0520771Y0060785D02*
X0529327Y0060785D01*
X0529327Y0060393D02*
X0508854Y0060393D01*
X0508854Y0060001D02*
X0529327Y0060001D01*
X0529327Y0059608D02*
X0508854Y0059608D01*
X0565043Y0059608D02*
X0585516Y0059608D01*
X0585516Y0059429D02*
X0565043Y0059429D01*
X0565043Y0079902D01*
X0571343Y0079902D01*
X0571343Y0077815D01*
X0571205Y0077756D01*
X0570949Y0077618D01*
X0570673Y0077461D01*
X0570417Y0077303D01*
X0570122Y0077106D01*
X0569866Y0076929D01*
X0569571Y0076693D01*
X0569315Y0076476D01*
X0569098Y0076280D01*
X0568980Y0076161D01*
X0568764Y0075945D01*
X0568606Y0075787D01*
X0568350Y0075492D01*
X0568232Y0075354D01*
X0568094Y0075177D01*
X0567878Y0074882D01*
X0567701Y0074626D01*
X0567484Y0074272D01*
X0567307Y0073957D01*
X0567150Y0073661D01*
X0567012Y0073366D01*
X0566894Y0073091D01*
X0566756Y0072736D01*
X0566638Y0072382D01*
X0566539Y0072028D01*
X0566461Y0071732D01*
X0566402Y0071457D01*
X0566343Y0071122D01*
X0566303Y0070866D01*
X0566264Y0070492D01*
X0566244Y0070236D01*
X0566224Y0069902D01*
X0566224Y0069665D01*
X0566336Y0068249D01*
X0566668Y0066867D01*
X0567211Y0065554D01*
X0567954Y0064343D01*
X0568877Y0063262D01*
X0569957Y0062340D01*
X0571169Y0061597D01*
X0572481Y0061053D01*
X0573863Y0060722D01*
X0575280Y0060610D01*
X0576696Y0060722D01*
X0578078Y0061053D01*
X0579390Y0061597D01*
X0580602Y0062340D01*
X0581682Y0063262D01*
X0582605Y0064343D01*
X0583348Y0065554D01*
X0583891Y0066867D01*
X0584223Y0068249D01*
X0584335Y0069665D01*
X0584335Y0069941D01*
X0584315Y0070276D01*
X0584295Y0070492D01*
X0584276Y0070709D01*
X0584256Y0070866D01*
X0584217Y0071122D01*
X0584177Y0071358D01*
X0584098Y0071732D01*
X0584020Y0072047D01*
X0583941Y0072323D01*
X0583862Y0072559D01*
X0583803Y0072736D01*
X0583705Y0072992D01*
X0583587Y0073287D01*
X0583449Y0073583D01*
X0583331Y0073819D01*
X0583213Y0074035D01*
X0583114Y0074213D01*
X0582957Y0074469D01*
X0582819Y0074685D01*
X0582642Y0074941D01*
X0582465Y0075177D01*
X0582307Y0075374D01*
X0582209Y0075492D01*
X0582051Y0075669D01*
X0581874Y0075866D01*
X0581657Y0076083D01*
X0581520Y0076220D01*
X0581303Y0076417D01*
X0581146Y0076555D01*
X0580909Y0076752D01*
X0580732Y0076890D01*
X0580437Y0077106D01*
X0580142Y0077303D01*
X0579787Y0077520D01*
X0579531Y0077657D01*
X0579315Y0077776D01*
X0579217Y0077815D01*
X0579217Y0079902D01*
X0585516Y0079902D01*
X0585516Y0059429D01*
X0585516Y0060001D02*
X0565043Y0060001D01*
X0565043Y0060393D02*
X0585516Y0060393D01*
X0585516Y0060785D02*
X0576960Y0060785D01*
X0578377Y0061177D02*
X0585516Y0061177D01*
X0585516Y0061570D02*
X0579324Y0061570D01*
X0579985Y0061962D02*
X0585516Y0061962D01*
X0585516Y0062354D02*
X0580619Y0062354D01*
X0581078Y0062746D02*
X0585516Y0062746D01*
X0585516Y0063138D02*
X0581537Y0063138D01*
X0581912Y0063531D02*
X0585516Y0063531D01*
X0585516Y0063923D02*
X0582246Y0063923D01*
X0582581Y0064315D02*
X0585516Y0064315D01*
X0585516Y0064707D02*
X0582829Y0064707D01*
X0583069Y0065099D02*
X0585516Y0065099D01*
X0585516Y0065492D02*
X0583309Y0065492D01*
X0583484Y0065884D02*
X0585516Y0065884D01*
X0585516Y0066276D02*
X0583647Y0066276D01*
X0583809Y0066668D02*
X0585516Y0066668D01*
X0585516Y0067060D02*
X0583938Y0067060D01*
X0584032Y0067453D02*
X0585516Y0067453D01*
X0585516Y0067845D02*
X0584126Y0067845D01*
X0584220Y0068237D02*
X0585516Y0068237D01*
X0585516Y0068629D02*
X0584253Y0068629D01*
X0584284Y0069022D02*
X0585516Y0069022D01*
X0585516Y0069414D02*
X0584315Y0069414D01*
X0584335Y0069806D02*
X0585516Y0069806D01*
X0585516Y0070198D02*
X0584320Y0070198D01*
X0584286Y0070590D02*
X0585516Y0070590D01*
X0585516Y0070983D02*
X0584238Y0070983D01*
X0584174Y0071375D02*
X0585516Y0071375D01*
X0585516Y0071767D02*
X0584090Y0071767D01*
X0583988Y0072159D02*
X0585516Y0072159D01*
X0585516Y0072551D02*
X0583865Y0072551D01*
X0583723Y0072944D02*
X0585516Y0072944D01*
X0585516Y0073336D02*
X0583564Y0073336D01*
X0583376Y0073728D02*
X0585516Y0073728D01*
X0585516Y0074120D02*
X0583165Y0074120D01*
X0582929Y0074513D02*
X0585516Y0074513D01*
X0585516Y0074905D02*
X0582667Y0074905D01*
X0582369Y0075297D02*
X0585516Y0075297D01*
X0585516Y0075689D02*
X0582033Y0075689D01*
X0581659Y0076081D02*
X0585516Y0076081D01*
X0585516Y0076474D02*
X0581239Y0076474D01*
X0580763Y0076866D02*
X0585516Y0076866D01*
X0585516Y0077258D02*
X0580209Y0077258D01*
X0579545Y0077650D02*
X0585516Y0077650D01*
X0585516Y0078042D02*
X0579217Y0078042D01*
X0579217Y0078435D02*
X0585516Y0078435D01*
X0585516Y0078827D02*
X0579217Y0078827D01*
X0579217Y0079219D02*
X0585516Y0079219D01*
X0585516Y0079611D02*
X0579217Y0079611D01*
X0571343Y0079611D02*
X0565043Y0079611D01*
X0565043Y0079219D02*
X0571343Y0079219D01*
X0571343Y0078827D02*
X0565043Y0078827D01*
X0565043Y0078435D02*
X0571343Y0078435D01*
X0571343Y0078042D02*
X0565043Y0078042D01*
X0565043Y0077650D02*
X0571008Y0077650D01*
X0570350Y0077258D02*
X0565043Y0077258D01*
X0565043Y0076866D02*
X0569787Y0076866D01*
X0569312Y0076474D02*
X0565043Y0076474D01*
X0565043Y0076081D02*
X0568900Y0076081D01*
X0568521Y0075689D02*
X0565043Y0075689D01*
X0565043Y0075297D02*
X0568188Y0075297D01*
X0567895Y0074905D02*
X0565043Y0074905D01*
X0565043Y0074513D02*
X0567631Y0074513D01*
X0567399Y0074120D02*
X0565043Y0074120D01*
X0565043Y0073728D02*
X0567185Y0073728D01*
X0566999Y0073336D02*
X0565043Y0073336D01*
X0565043Y0072944D02*
X0566837Y0072944D01*
X0566694Y0072551D02*
X0565043Y0072551D01*
X0565043Y0072159D02*
X0566576Y0072159D01*
X0566470Y0071767D02*
X0565043Y0071767D01*
X0565043Y0071375D02*
X0566387Y0071375D01*
X0566321Y0070983D02*
X0565043Y0070983D01*
X0565043Y0070590D02*
X0566274Y0070590D01*
X0566242Y0070198D02*
X0565043Y0070198D01*
X0565043Y0069806D02*
X0566224Y0069806D01*
X0566244Y0069414D02*
X0565043Y0069414D01*
X0565043Y0069022D02*
X0566275Y0069022D01*
X0566306Y0068629D02*
X0565043Y0068629D01*
X0565043Y0068237D02*
X0566339Y0068237D01*
X0566433Y0067845D02*
X0565043Y0067845D01*
X0565043Y0067453D02*
X0566527Y0067453D01*
X0566621Y0067060D02*
X0565043Y0067060D01*
X0565043Y0066668D02*
X0566750Y0066668D01*
X0566912Y0066276D02*
X0565043Y0066276D01*
X0565043Y0065884D02*
X0567075Y0065884D01*
X0567250Y0065492D02*
X0565043Y0065492D01*
X0565043Y0065099D02*
X0567490Y0065099D01*
X0567731Y0064707D02*
X0565043Y0064707D01*
X0565043Y0064315D02*
X0567978Y0064315D01*
X0568313Y0063923D02*
X0565043Y0063923D01*
X0565043Y0063531D02*
X0568648Y0063531D01*
X0569022Y0063138D02*
X0565043Y0063138D01*
X0565043Y0062746D02*
X0569481Y0062746D01*
X0569940Y0062354D02*
X0565043Y0062354D01*
X0565043Y0061962D02*
X0570574Y0061962D01*
X0571235Y0061570D02*
X0565043Y0061570D01*
X0565043Y0061177D02*
X0572182Y0061177D01*
X0573599Y0060785D02*
X0565043Y0060785D01*
X0621232Y0060785D02*
X0629788Y0060785D01*
X0630052Y0060722D02*
X0631469Y0060610D01*
X0632885Y0060722D01*
X0634267Y0061053D01*
X0635579Y0061597D01*
X0636791Y0062340D01*
X0637871Y0063262D01*
X0638794Y0064343D01*
X0639537Y0065554D01*
X0640080Y0066867D01*
X0640412Y0068249D01*
X0640524Y0069665D01*
X0640524Y0069941D01*
X0640504Y0070276D01*
X0640484Y0070492D01*
X0640465Y0070709D01*
X0640445Y0070866D01*
X0640406Y0071122D01*
X0640366Y0071358D01*
X0640287Y0071732D01*
X0640209Y0072047D01*
X0640130Y0072323D01*
X0640051Y0072559D01*
X0639992Y0072736D01*
X0639894Y0072992D01*
X0639776Y0073287D01*
X0639638Y0073583D01*
X0639520Y0073819D01*
X0639402Y0074035D01*
X0639303Y0074213D01*
X0639146Y0074469D01*
X0639008Y0074685D01*
X0638831Y0074941D01*
X0638654Y0075177D01*
X0638496Y0075374D01*
X0638398Y0075492D01*
X0638240Y0075669D01*
X0638063Y0075866D01*
X0637846Y0076083D01*
X0637709Y0076220D01*
X0637492Y0076417D01*
X0637335Y0076555D01*
X0637098Y0076752D01*
X0636921Y0076890D01*
X0636626Y0077106D01*
X0636331Y0077303D01*
X0635976Y0077520D01*
X0635720Y0077657D01*
X0635504Y0077776D01*
X0635406Y0077815D01*
X0635406Y0079902D01*
X0641705Y0079902D01*
X0641705Y0059429D01*
X0621232Y0059429D01*
X0621232Y0079902D01*
X0627531Y0079902D01*
X0627531Y0077815D01*
X0627394Y0077756D01*
X0627138Y0077618D01*
X0626862Y0077461D01*
X0626606Y0077303D01*
X0626311Y0077106D01*
X0626055Y0076929D01*
X0625760Y0076693D01*
X0625504Y0076476D01*
X0625287Y0076280D01*
X0625169Y0076161D01*
X0624953Y0075945D01*
X0624795Y0075787D01*
X0624539Y0075492D01*
X0624421Y0075354D01*
X0624283Y0075177D01*
X0624067Y0074882D01*
X0623890Y0074626D01*
X0623673Y0074272D01*
X0623496Y0073957D01*
X0623339Y0073661D01*
X0623201Y0073366D01*
X0623083Y0073091D01*
X0622945Y0072736D01*
X0622827Y0072382D01*
X0622728Y0072028D01*
X0622650Y0071732D01*
X0622591Y0071457D01*
X0622531Y0071122D01*
X0622492Y0070866D01*
X0622453Y0070492D01*
X0622433Y0070236D01*
X0622413Y0069902D01*
X0622413Y0069665D01*
X0622525Y0068249D01*
X0622857Y0066867D01*
X0623400Y0065554D01*
X0624143Y0064343D01*
X0625066Y0063262D01*
X0626146Y0062340D01*
X0627358Y0061597D01*
X0628670Y0061053D01*
X0630052Y0060722D01*
X0628371Y0061177D02*
X0621232Y0061177D01*
X0621232Y0061570D02*
X0627424Y0061570D01*
X0626763Y0061962D02*
X0621232Y0061962D01*
X0621232Y0062354D02*
X0626129Y0062354D01*
X0625670Y0062746D02*
X0621232Y0062746D01*
X0621232Y0063138D02*
X0625211Y0063138D01*
X0624837Y0063531D02*
X0621232Y0063531D01*
X0621232Y0063923D02*
X0624502Y0063923D01*
X0624167Y0064315D02*
X0621232Y0064315D01*
X0621232Y0064707D02*
X0623919Y0064707D01*
X0623679Y0065099D02*
X0621232Y0065099D01*
X0621232Y0065492D02*
X0623439Y0065492D01*
X0623264Y0065884D02*
X0621232Y0065884D01*
X0621232Y0066276D02*
X0623101Y0066276D01*
X0622939Y0066668D02*
X0621232Y0066668D01*
X0621232Y0067060D02*
X0622810Y0067060D01*
X0622716Y0067453D02*
X0621232Y0067453D01*
X0621232Y0067845D02*
X0622622Y0067845D01*
X0622528Y0068237D02*
X0621232Y0068237D01*
X0621232Y0068629D02*
X0622495Y0068629D01*
X0622464Y0069022D02*
X0621232Y0069022D01*
X0621232Y0069414D02*
X0622433Y0069414D01*
X0622413Y0069806D02*
X0621232Y0069806D01*
X0621232Y0070198D02*
X0622431Y0070198D01*
X0622463Y0070590D02*
X0621232Y0070590D01*
X0621232Y0070983D02*
X0622510Y0070983D01*
X0622576Y0071375D02*
X0621232Y0071375D01*
X0621232Y0071767D02*
X0622659Y0071767D01*
X0622765Y0072159D02*
X0621232Y0072159D01*
X0621232Y0072551D02*
X0622883Y0072551D01*
X0623026Y0072944D02*
X0621232Y0072944D01*
X0621232Y0073336D02*
X0623188Y0073336D01*
X0623374Y0073728D02*
X0621232Y0073728D01*
X0621232Y0074120D02*
X0623588Y0074120D01*
X0623820Y0074513D02*
X0621232Y0074513D01*
X0621232Y0074905D02*
X0624084Y0074905D01*
X0624377Y0075297D02*
X0621232Y0075297D01*
X0621232Y0075689D02*
X0624710Y0075689D01*
X0625089Y0076081D02*
X0621232Y0076081D01*
X0621232Y0076474D02*
X0625501Y0076474D01*
X0625976Y0076866D02*
X0621232Y0076866D01*
X0621232Y0077258D02*
X0626539Y0077258D01*
X0627197Y0077650D02*
X0621232Y0077650D01*
X0621232Y0078042D02*
X0627531Y0078042D01*
X0627531Y0078435D02*
X0621232Y0078435D01*
X0621232Y0078827D02*
X0627531Y0078827D01*
X0627531Y0079219D02*
X0621232Y0079219D01*
X0621232Y0079611D02*
X0627531Y0079611D01*
X0635406Y0079611D02*
X0641705Y0079611D01*
X0641705Y0079219D02*
X0635406Y0079219D01*
X0635406Y0078827D02*
X0641705Y0078827D01*
X0641705Y0078435D02*
X0635406Y0078435D01*
X0635406Y0078042D02*
X0641705Y0078042D01*
X0641705Y0077650D02*
X0635734Y0077650D01*
X0636398Y0077258D02*
X0641705Y0077258D01*
X0641705Y0076866D02*
X0636952Y0076866D01*
X0637428Y0076474D02*
X0641705Y0076474D01*
X0641705Y0076081D02*
X0637848Y0076081D01*
X0638222Y0075689D02*
X0641705Y0075689D01*
X0641705Y0075297D02*
X0638558Y0075297D01*
X0638856Y0074905D02*
X0641705Y0074905D01*
X0641705Y0074513D02*
X0639118Y0074513D01*
X0639354Y0074120D02*
X0641705Y0074120D01*
X0641705Y0073728D02*
X0639565Y0073728D01*
X0639753Y0073336D02*
X0641705Y0073336D01*
X0641705Y0072944D02*
X0639912Y0072944D01*
X0640054Y0072551D02*
X0641705Y0072551D01*
X0641705Y0072159D02*
X0640177Y0072159D01*
X0640279Y0071767D02*
X0641705Y0071767D01*
X0641705Y0071375D02*
X0640363Y0071375D01*
X0640427Y0070983D02*
X0641705Y0070983D01*
X0641705Y0070590D02*
X0640475Y0070590D01*
X0640509Y0070198D02*
X0641705Y0070198D01*
X0641705Y0069806D02*
X0640524Y0069806D01*
X0640504Y0069414D02*
X0641705Y0069414D01*
X0641705Y0069022D02*
X0640473Y0069022D01*
X0640442Y0068629D02*
X0641705Y0068629D01*
X0641705Y0068237D02*
X0640409Y0068237D01*
X0640315Y0067845D02*
X0641705Y0067845D01*
X0641705Y0067453D02*
X0640221Y0067453D01*
X0640127Y0067060D02*
X0641705Y0067060D01*
X0641705Y0066668D02*
X0639998Y0066668D01*
X0639836Y0066276D02*
X0641705Y0066276D01*
X0641705Y0065884D02*
X0639673Y0065884D01*
X0639498Y0065492D02*
X0641705Y0065492D01*
X0641705Y0065099D02*
X0639258Y0065099D01*
X0639018Y0064707D02*
X0641705Y0064707D01*
X0641705Y0064315D02*
X0638770Y0064315D01*
X0638435Y0063923D02*
X0641705Y0063923D01*
X0641705Y0063531D02*
X0638100Y0063531D01*
X0637726Y0063138D02*
X0641705Y0063138D01*
X0641705Y0062746D02*
X0637267Y0062746D01*
X0636808Y0062354D02*
X0641705Y0062354D01*
X0641705Y0061962D02*
X0636174Y0061962D01*
X0635513Y0061570D02*
X0641705Y0061570D01*
X0641705Y0061177D02*
X0634566Y0061177D01*
X0633149Y0060785D02*
X0641705Y0060785D01*
X0641705Y0060393D02*
X0621232Y0060393D01*
X0621232Y0060001D02*
X0641705Y0060001D01*
X0641705Y0059608D02*
X0621232Y0059608D01*
X0677421Y0059608D02*
X0697894Y0059608D01*
X0697894Y0059429D02*
X0677421Y0059429D01*
X0677421Y0079902D01*
X0683720Y0079902D01*
X0683720Y0077815D01*
X0683583Y0077756D01*
X0683327Y0077618D01*
X0683051Y0077461D01*
X0682795Y0077303D01*
X0682500Y0077106D01*
X0682244Y0076929D01*
X0681949Y0076693D01*
X0681693Y0076476D01*
X0681476Y0076280D01*
X0681358Y0076161D01*
X0681142Y0075945D01*
X0680984Y0075787D01*
X0680728Y0075492D01*
X0680610Y0075354D01*
X0680472Y0075177D01*
X0680256Y0074882D01*
X0680079Y0074626D01*
X0679862Y0074272D01*
X0679685Y0073957D01*
X0679528Y0073661D01*
X0679390Y0073366D01*
X0679272Y0073091D01*
X0679134Y0072736D01*
X0679016Y0072382D01*
X0678917Y0072028D01*
X0678839Y0071732D01*
X0678780Y0071457D01*
X0678720Y0071122D01*
X0678681Y0070866D01*
X0678642Y0070492D01*
X0678622Y0070236D01*
X0678602Y0069902D01*
X0678602Y0069665D01*
X0678714Y0068249D01*
X0679046Y0066867D01*
X0679589Y0065554D01*
X0680332Y0064343D01*
X0681255Y0063262D01*
X0682335Y0062340D01*
X0683547Y0061597D01*
X0684859Y0061053D01*
X0686241Y0060722D01*
X0687657Y0060610D01*
X0689074Y0060722D01*
X0690456Y0061053D01*
X0691768Y0061597D01*
X0692980Y0062340D01*
X0694060Y0063262D01*
X0694983Y0064343D01*
X0695726Y0065554D01*
X0696269Y0066867D01*
X0696601Y0068249D01*
X0696713Y0069665D01*
X0696713Y0069941D01*
X0696693Y0070276D01*
X0696673Y0070492D01*
X0696654Y0070709D01*
X0696634Y0070866D01*
X0696594Y0071122D01*
X0696555Y0071358D01*
X0696476Y0071732D01*
X0696398Y0072047D01*
X0696319Y0072323D01*
X0696240Y0072559D01*
X0696181Y0072736D01*
X0696083Y0072992D01*
X0695965Y0073287D01*
X0695827Y0073583D01*
X0695709Y0073819D01*
X0695591Y0074035D01*
X0695492Y0074213D01*
X0695335Y0074469D01*
X0695197Y0074685D01*
X0695020Y0074941D01*
X0694843Y0075177D01*
X0694685Y0075374D01*
X0694587Y0075492D01*
X0694429Y0075669D01*
X0694252Y0075866D01*
X0694035Y0076083D01*
X0693898Y0076220D01*
X0693681Y0076417D01*
X0693524Y0076555D01*
X0693287Y0076752D01*
X0693110Y0076890D01*
X0692815Y0077106D01*
X0692520Y0077303D01*
X0692165Y0077520D01*
X0691909Y0077657D01*
X0691693Y0077776D01*
X0691594Y0077815D01*
X0691594Y0079902D01*
X0697894Y0079902D01*
X0697894Y0059429D01*
X0697894Y0060001D02*
X0677421Y0060001D01*
X0677421Y0060393D02*
X0697894Y0060393D01*
X0697894Y0060785D02*
X0689338Y0060785D01*
X0690755Y0061177D02*
X0697894Y0061177D01*
X0697894Y0061570D02*
X0691702Y0061570D01*
X0692363Y0061962D02*
X0697894Y0061962D01*
X0697894Y0062354D02*
X0692997Y0062354D01*
X0693456Y0062746D02*
X0697894Y0062746D01*
X0697894Y0063138D02*
X0693915Y0063138D01*
X0694289Y0063531D02*
X0697894Y0063531D01*
X0697894Y0063923D02*
X0694624Y0063923D01*
X0694959Y0064315D02*
X0697894Y0064315D01*
X0697894Y0064707D02*
X0695206Y0064707D01*
X0695447Y0065099D02*
X0697894Y0065099D01*
X0697894Y0065492D02*
X0695687Y0065492D01*
X0695862Y0065884D02*
X0697894Y0065884D01*
X0697894Y0066276D02*
X0696025Y0066276D01*
X0696187Y0066668D02*
X0697894Y0066668D01*
X0697894Y0067060D02*
X0696316Y0067060D01*
X0696410Y0067453D02*
X0697894Y0067453D01*
X0697894Y0067845D02*
X0696504Y0067845D01*
X0696598Y0068237D02*
X0697894Y0068237D01*
X0697894Y0068629D02*
X0696631Y0068629D01*
X0696662Y0069022D02*
X0697894Y0069022D01*
X0697894Y0069414D02*
X0696693Y0069414D01*
X0696713Y0069806D02*
X0697894Y0069806D01*
X0697894Y0070198D02*
X0696697Y0070198D01*
X0696664Y0070590D02*
X0697894Y0070590D01*
X0697894Y0070983D02*
X0696616Y0070983D01*
X0696552Y0071375D02*
X0697894Y0071375D01*
X0697894Y0071767D02*
X0696468Y0071767D01*
X0696366Y0072159D02*
X0697894Y0072159D01*
X0697894Y0072551D02*
X0696243Y0072551D01*
X0696101Y0072944D02*
X0697894Y0072944D01*
X0697894Y0073336D02*
X0695942Y0073336D01*
X0695754Y0073728D02*
X0697894Y0073728D01*
X0697894Y0074120D02*
X0695543Y0074120D01*
X0695307Y0074513D02*
X0697894Y0074513D01*
X0697894Y0074905D02*
X0695045Y0074905D01*
X0694747Y0075297D02*
X0697894Y0075297D01*
X0697894Y0075689D02*
X0694411Y0075689D01*
X0694037Y0076081D02*
X0697894Y0076081D01*
X0697894Y0076474D02*
X0693617Y0076474D01*
X0693141Y0076866D02*
X0697894Y0076866D01*
X0697894Y0077258D02*
X0692587Y0077258D01*
X0691923Y0077650D02*
X0697894Y0077650D01*
X0697894Y0078042D02*
X0691594Y0078042D01*
X0691594Y0078435D02*
X0697894Y0078435D01*
X0697894Y0078827D02*
X0691594Y0078827D01*
X0691594Y0079219D02*
X0697894Y0079219D01*
X0697894Y0079611D02*
X0691594Y0079611D01*
X0683720Y0079611D02*
X0677421Y0079611D01*
X0677421Y0079219D02*
X0683720Y0079219D01*
X0683720Y0078827D02*
X0677421Y0078827D01*
X0677421Y0078435D02*
X0683720Y0078435D01*
X0683720Y0078042D02*
X0677421Y0078042D01*
X0677421Y0077650D02*
X0683386Y0077650D01*
X0682728Y0077258D02*
X0677421Y0077258D01*
X0677421Y0076866D02*
X0682165Y0076866D01*
X0681690Y0076474D02*
X0677421Y0076474D01*
X0677421Y0076081D02*
X0681278Y0076081D01*
X0680899Y0075689D02*
X0677421Y0075689D01*
X0677421Y0075297D02*
X0680566Y0075297D01*
X0680273Y0074905D02*
X0677421Y0074905D01*
X0677421Y0074513D02*
X0680009Y0074513D01*
X0679777Y0074120D02*
X0677421Y0074120D01*
X0677421Y0073728D02*
X0679563Y0073728D01*
X0679377Y0073336D02*
X0677421Y0073336D01*
X0677421Y0072944D02*
X0679215Y0072944D01*
X0679072Y0072551D02*
X0677421Y0072551D01*
X0677421Y0072159D02*
X0678954Y0072159D01*
X0678848Y0071767D02*
X0677421Y0071767D01*
X0677421Y0071375D02*
X0678765Y0071375D01*
X0678699Y0070983D02*
X0677421Y0070983D01*
X0677421Y0070590D02*
X0678652Y0070590D01*
X0678620Y0070198D02*
X0677421Y0070198D01*
X0677421Y0069806D02*
X0678602Y0069806D01*
X0678622Y0069414D02*
X0677421Y0069414D01*
X0677421Y0069022D02*
X0678653Y0069022D01*
X0678684Y0068629D02*
X0677421Y0068629D01*
X0677421Y0068237D02*
X0678717Y0068237D01*
X0678811Y0067845D02*
X0677421Y0067845D01*
X0677421Y0067453D02*
X0678905Y0067453D01*
X0678999Y0067060D02*
X0677421Y0067060D01*
X0677421Y0066668D02*
X0679128Y0066668D01*
X0679290Y0066276D02*
X0677421Y0066276D01*
X0677421Y0065884D02*
X0679453Y0065884D01*
X0679628Y0065492D02*
X0677421Y0065492D01*
X0677421Y0065099D02*
X0679868Y0065099D01*
X0680108Y0064707D02*
X0677421Y0064707D01*
X0677421Y0064315D02*
X0680356Y0064315D01*
X0680691Y0063923D02*
X0677421Y0063923D01*
X0677421Y0063531D02*
X0681025Y0063531D01*
X0681400Y0063138D02*
X0677421Y0063138D01*
X0677421Y0062746D02*
X0681859Y0062746D01*
X0682318Y0062354D02*
X0677421Y0062354D01*
X0677421Y0061962D02*
X0682952Y0061962D01*
X0683613Y0061570D02*
X0677421Y0061570D01*
X0677421Y0061177D02*
X0684560Y0061177D01*
X0685977Y0060785D02*
X0677421Y0060785D01*
X0733610Y0060785D02*
X0742166Y0060785D01*
X0742430Y0060722D02*
X0743846Y0060610D01*
X0745263Y0060722D01*
X0746645Y0061053D01*
X0747957Y0061597D01*
X0749169Y0062340D01*
X0750249Y0063262D01*
X0751172Y0064343D01*
X0751915Y0065554D01*
X0752458Y0066867D01*
X0752790Y0068249D01*
X0752902Y0069665D01*
X0752902Y0069941D01*
X0752882Y0070276D01*
X0752862Y0070492D01*
X0752843Y0070709D01*
X0752823Y0070866D01*
X0752783Y0071122D01*
X0752744Y0071358D01*
X0752665Y0071732D01*
X0752587Y0072047D01*
X0752508Y0072323D01*
X0752429Y0072559D01*
X0752370Y0072736D01*
X0752272Y0072992D01*
X0752154Y0073287D01*
X0752016Y0073583D01*
X0751898Y0073819D01*
X0751780Y0074035D01*
X0751681Y0074213D01*
X0751524Y0074469D01*
X0751386Y0074685D01*
X0751209Y0074941D01*
X0751031Y0075177D01*
X0750874Y0075374D01*
X0750776Y0075492D01*
X0750618Y0075669D01*
X0750441Y0075866D01*
X0750224Y0076083D01*
X0750087Y0076220D01*
X0749870Y0076417D01*
X0749713Y0076555D01*
X0749476Y0076752D01*
X0749299Y0076890D01*
X0749004Y0077106D01*
X0748709Y0077303D01*
X0748354Y0077520D01*
X0748098Y0077657D01*
X0747882Y0077776D01*
X0747783Y0077815D01*
X0747783Y0079902D01*
X0754083Y0079902D01*
X0754083Y0059429D01*
X0733610Y0059429D01*
X0733610Y0079902D01*
X0739909Y0079902D01*
X0739909Y0077815D01*
X0739772Y0077756D01*
X0739516Y0077618D01*
X0739240Y0077461D01*
X0738984Y0077303D01*
X0738689Y0077106D01*
X0738433Y0076929D01*
X0738138Y0076693D01*
X0737882Y0076476D01*
X0737665Y0076280D01*
X0737547Y0076161D01*
X0737331Y0075945D01*
X0737173Y0075787D01*
X0736917Y0075492D01*
X0736799Y0075354D01*
X0736661Y0075177D01*
X0736445Y0074882D01*
X0736268Y0074626D01*
X0736051Y0074272D01*
X0735874Y0073957D01*
X0735717Y0073661D01*
X0735579Y0073366D01*
X0735461Y0073091D01*
X0735323Y0072736D01*
X0735205Y0072382D01*
X0735106Y0072028D01*
X0735028Y0071732D01*
X0734969Y0071457D01*
X0734909Y0071122D01*
X0734870Y0070866D01*
X0734831Y0070492D01*
X0734811Y0070236D01*
X0734791Y0069902D01*
X0734791Y0069665D01*
X0734903Y0068249D01*
X0735235Y0066867D01*
X0735778Y0065554D01*
X0736521Y0064343D01*
X0737444Y0063262D01*
X0738524Y0062340D01*
X0739736Y0061597D01*
X0741048Y0061053D01*
X0742430Y0060722D01*
X0740749Y0061177D02*
X0733610Y0061177D01*
X0733610Y0061570D02*
X0739802Y0061570D01*
X0739141Y0061962D02*
X0733610Y0061962D01*
X0733610Y0062354D02*
X0738507Y0062354D01*
X0738048Y0062746D02*
X0733610Y0062746D01*
X0733610Y0063138D02*
X0737589Y0063138D01*
X0737214Y0063531D02*
X0733610Y0063531D01*
X0733610Y0063923D02*
X0736879Y0063923D01*
X0736545Y0064315D02*
X0733610Y0064315D01*
X0733610Y0064707D02*
X0736297Y0064707D01*
X0736057Y0065099D02*
X0733610Y0065099D01*
X0733610Y0065492D02*
X0735817Y0065492D01*
X0735642Y0065884D02*
X0733610Y0065884D01*
X0733610Y0066276D02*
X0735479Y0066276D01*
X0735317Y0066668D02*
X0733610Y0066668D01*
X0733610Y0067060D02*
X0735188Y0067060D01*
X0735094Y0067453D02*
X0733610Y0067453D01*
X0733610Y0067845D02*
X0735000Y0067845D01*
X0734906Y0068237D02*
X0733610Y0068237D01*
X0733610Y0068629D02*
X0734873Y0068629D01*
X0734842Y0069022D02*
X0733610Y0069022D01*
X0733610Y0069414D02*
X0734811Y0069414D01*
X0734791Y0069806D02*
X0733610Y0069806D01*
X0733610Y0070198D02*
X0734809Y0070198D01*
X0734841Y0070590D02*
X0733610Y0070590D01*
X0733610Y0070983D02*
X0734888Y0070983D01*
X0734954Y0071375D02*
X0733610Y0071375D01*
X0733610Y0071767D02*
X0735037Y0071767D01*
X0735143Y0072159D02*
X0733610Y0072159D01*
X0733610Y0072551D02*
X0735261Y0072551D01*
X0735404Y0072944D02*
X0733610Y0072944D01*
X0733610Y0073336D02*
X0735566Y0073336D01*
X0735752Y0073728D02*
X0733610Y0073728D01*
X0733610Y0074120D02*
X0735966Y0074120D01*
X0736198Y0074513D02*
X0733610Y0074513D01*
X0733610Y0074905D02*
X0736462Y0074905D01*
X0736755Y0075297D02*
X0733610Y0075297D01*
X0733610Y0075689D02*
X0737088Y0075689D01*
X0737467Y0076081D02*
X0733610Y0076081D01*
X0733610Y0076474D02*
X0737879Y0076474D01*
X0738354Y0076866D02*
X0733610Y0076866D01*
X0733610Y0077258D02*
X0738917Y0077258D01*
X0739575Y0077650D02*
X0733610Y0077650D01*
X0733610Y0078042D02*
X0739909Y0078042D01*
X0739909Y0078435D02*
X0733610Y0078435D01*
X0733610Y0078827D02*
X0739909Y0078827D01*
X0739909Y0079219D02*
X0733610Y0079219D01*
X0733610Y0079611D02*
X0739909Y0079611D01*
X0747783Y0079611D02*
X0754083Y0079611D01*
X0754083Y0079219D02*
X0747783Y0079219D01*
X0747783Y0078827D02*
X0754083Y0078827D01*
X0754083Y0078435D02*
X0747783Y0078435D01*
X0747783Y0078042D02*
X0754083Y0078042D01*
X0754083Y0077650D02*
X0748112Y0077650D01*
X0748776Y0077258D02*
X0754083Y0077258D01*
X0754083Y0076866D02*
X0749330Y0076866D01*
X0749806Y0076474D02*
X0754083Y0076474D01*
X0754083Y0076081D02*
X0750226Y0076081D01*
X0750600Y0075689D02*
X0754083Y0075689D01*
X0754083Y0075297D02*
X0750936Y0075297D01*
X0751234Y0074905D02*
X0754083Y0074905D01*
X0754083Y0074513D02*
X0751496Y0074513D01*
X0751732Y0074120D02*
X0754083Y0074120D01*
X0754083Y0073728D02*
X0751943Y0073728D01*
X0752131Y0073336D02*
X0754083Y0073336D01*
X0754083Y0072944D02*
X0752290Y0072944D01*
X0752432Y0072551D02*
X0754083Y0072551D01*
X0754083Y0072159D02*
X0752555Y0072159D01*
X0752657Y0071767D02*
X0754083Y0071767D01*
X0754083Y0071375D02*
X0752741Y0071375D01*
X0752805Y0070983D02*
X0754083Y0070983D01*
X0754083Y0070590D02*
X0752853Y0070590D01*
X0752886Y0070198D02*
X0754083Y0070198D01*
X0754083Y0069806D02*
X0752902Y0069806D01*
X0752882Y0069414D02*
X0754083Y0069414D01*
X0754083Y0069022D02*
X0752851Y0069022D01*
X0752820Y0068629D02*
X0754083Y0068629D01*
X0754083Y0068237D02*
X0752787Y0068237D01*
X0752693Y0067845D02*
X0754083Y0067845D01*
X0754083Y0067453D02*
X0752599Y0067453D01*
X0752505Y0067060D02*
X0754083Y0067060D01*
X0754083Y0066668D02*
X0752376Y0066668D01*
X0752214Y0066276D02*
X0754083Y0066276D01*
X0754083Y0065884D02*
X0752051Y0065884D01*
X0751876Y0065492D02*
X0754083Y0065492D01*
X0754083Y0065099D02*
X0751636Y0065099D01*
X0751395Y0064707D02*
X0754083Y0064707D01*
X0754083Y0064315D02*
X0751148Y0064315D01*
X0750813Y0063923D02*
X0754083Y0063923D01*
X0754083Y0063531D02*
X0750478Y0063531D01*
X0750104Y0063138D02*
X0754083Y0063138D01*
X0754083Y0062746D02*
X0749645Y0062746D01*
X0749186Y0062354D02*
X0754083Y0062354D01*
X0754083Y0061962D02*
X0748552Y0061962D01*
X0747891Y0061570D02*
X0754083Y0061570D01*
X0754083Y0061177D02*
X0746944Y0061177D01*
X0745527Y0060785D02*
X0754083Y0060785D01*
X0754083Y0060393D02*
X0733610Y0060393D01*
X0733610Y0060001D02*
X0754083Y0060001D01*
X0754083Y0059608D02*
X0733610Y0059608D01*
X0789799Y0059608D02*
X0810272Y0059608D01*
X0810272Y0059429D02*
X0789799Y0059429D01*
X0789799Y0079902D01*
X0796098Y0079902D01*
X0796098Y0077815D01*
X0795961Y0077756D01*
X0795705Y0077618D01*
X0795429Y0077461D01*
X0795173Y0077303D01*
X0794878Y0077106D01*
X0794622Y0076929D01*
X0794327Y0076693D01*
X0794071Y0076476D01*
X0793854Y0076280D01*
X0793736Y0076161D01*
X0793520Y0075945D01*
X0793362Y0075787D01*
X0793106Y0075492D01*
X0792988Y0075354D01*
X0792850Y0075177D01*
X0792634Y0074882D01*
X0792457Y0074626D01*
X0792240Y0074272D01*
X0792063Y0073957D01*
X0791906Y0073661D01*
X0791768Y0073366D01*
X0791650Y0073091D01*
X0791512Y0072736D01*
X0791394Y0072382D01*
X0791295Y0072028D01*
X0791217Y0071732D01*
X0791157Y0071457D01*
X0791098Y0071122D01*
X0791059Y0070866D01*
X0791020Y0070492D01*
X0791000Y0070236D01*
X0790980Y0069902D01*
X0790980Y0069665D01*
X0791092Y0068249D01*
X0791423Y0066867D01*
X0791967Y0065554D01*
X0792710Y0064343D01*
X0793632Y0063262D01*
X0794713Y0062340D01*
X0795924Y0061597D01*
X0797237Y0061053D01*
X0798619Y0060722D01*
X0800035Y0060610D01*
X0801452Y0060722D01*
X0802834Y0061053D01*
X0804146Y0061597D01*
X0805358Y0062340D01*
X0806438Y0063262D01*
X0807361Y0064343D01*
X0808104Y0065554D01*
X0808647Y0066867D01*
X0808979Y0068249D01*
X0809091Y0069665D01*
X0809091Y0069941D01*
X0809071Y0070276D01*
X0809051Y0070492D01*
X0809031Y0070709D01*
X0809012Y0070866D01*
X0808972Y0071122D01*
X0808933Y0071358D01*
X0808854Y0071732D01*
X0808776Y0072047D01*
X0808697Y0072323D01*
X0808618Y0072559D01*
X0808559Y0072736D01*
X0808461Y0072992D01*
X0808343Y0073287D01*
X0808205Y0073583D01*
X0808087Y0073819D01*
X0807969Y0074035D01*
X0807870Y0074213D01*
X0807713Y0074469D01*
X0807575Y0074685D01*
X0807398Y0074941D01*
X0807220Y0075177D01*
X0807063Y0075374D01*
X0806965Y0075492D01*
X0806807Y0075669D01*
X0806630Y0075866D01*
X0806413Y0076083D01*
X0806276Y0076220D01*
X0806059Y0076417D01*
X0805902Y0076555D01*
X0805665Y0076752D01*
X0805488Y0076890D01*
X0805193Y0077106D01*
X0804898Y0077303D01*
X0804543Y0077520D01*
X0804287Y0077657D01*
X0804071Y0077776D01*
X0803972Y0077815D01*
X0803972Y0079902D01*
X0810272Y0079902D01*
X0810272Y0059429D01*
X0810272Y0060001D02*
X0789799Y0060001D01*
X0789799Y0060393D02*
X0810272Y0060393D01*
X0810272Y0060785D02*
X0801716Y0060785D01*
X0803133Y0061177D02*
X0810272Y0061177D01*
X0810272Y0061570D02*
X0804080Y0061570D01*
X0804741Y0061962D02*
X0810272Y0061962D01*
X0810272Y0062354D02*
X0805375Y0062354D01*
X0805834Y0062746D02*
X0810272Y0062746D01*
X0810272Y0063138D02*
X0806293Y0063138D01*
X0806667Y0063531D02*
X0810272Y0063531D01*
X0810272Y0063923D02*
X0807002Y0063923D01*
X0807337Y0064315D02*
X0810272Y0064315D01*
X0810272Y0064707D02*
X0807584Y0064707D01*
X0807825Y0065099D02*
X0810272Y0065099D01*
X0810272Y0065492D02*
X0808065Y0065492D01*
X0808240Y0065884D02*
X0810272Y0065884D01*
X0810272Y0066276D02*
X0808403Y0066276D01*
X0808565Y0066668D02*
X0810272Y0066668D01*
X0810272Y0067060D02*
X0808694Y0067060D01*
X0808788Y0067453D02*
X0810272Y0067453D01*
X0810272Y0067845D02*
X0808882Y0067845D01*
X0808976Y0068237D02*
X0810272Y0068237D01*
X0810272Y0068629D02*
X0809009Y0068629D01*
X0809040Y0069022D02*
X0810272Y0069022D01*
X0810272Y0069414D02*
X0809071Y0069414D01*
X0809091Y0069806D02*
X0810272Y0069806D01*
X0810272Y0070198D02*
X0809075Y0070198D01*
X0809042Y0070590D02*
X0810272Y0070590D01*
X0810272Y0070983D02*
X0808994Y0070983D01*
X0808930Y0071375D02*
X0810272Y0071375D01*
X0810272Y0071767D02*
X0808846Y0071767D01*
X0808744Y0072159D02*
X0810272Y0072159D01*
X0810272Y0072551D02*
X0808621Y0072551D01*
X0808479Y0072944D02*
X0810272Y0072944D01*
X0810272Y0073336D02*
X0808320Y0073336D01*
X0808132Y0073728D02*
X0810272Y0073728D01*
X0810272Y0074120D02*
X0807921Y0074120D01*
X0807685Y0074513D02*
X0810272Y0074513D01*
X0810272Y0074905D02*
X0807423Y0074905D01*
X0807125Y0075297D02*
X0810272Y0075297D01*
X0810272Y0075689D02*
X0806789Y0075689D01*
X0806415Y0076081D02*
X0810272Y0076081D01*
X0810272Y0076474D02*
X0805995Y0076474D01*
X0805519Y0076866D02*
X0810272Y0076866D01*
X0810272Y0077258D02*
X0804965Y0077258D01*
X0804301Y0077650D02*
X0810272Y0077650D01*
X0810272Y0078042D02*
X0803972Y0078042D01*
X0803972Y0078435D02*
X0810272Y0078435D01*
X0810272Y0078827D02*
X0803972Y0078827D01*
X0803972Y0079219D02*
X0810272Y0079219D01*
X0810272Y0079611D02*
X0803972Y0079611D01*
X0796098Y0079611D02*
X0789799Y0079611D01*
X0789799Y0079219D02*
X0796098Y0079219D01*
X0796098Y0078827D02*
X0789799Y0078827D01*
X0789799Y0078435D02*
X0796098Y0078435D01*
X0796098Y0078042D02*
X0789799Y0078042D01*
X0789799Y0077650D02*
X0795764Y0077650D01*
X0795106Y0077258D02*
X0789799Y0077258D01*
X0789799Y0076866D02*
X0794543Y0076866D01*
X0794068Y0076474D02*
X0789799Y0076474D01*
X0789799Y0076081D02*
X0793656Y0076081D01*
X0793277Y0075689D02*
X0789799Y0075689D01*
X0789799Y0075297D02*
X0792944Y0075297D01*
X0792651Y0074905D02*
X0789799Y0074905D01*
X0789799Y0074513D02*
X0792387Y0074513D01*
X0792155Y0074120D02*
X0789799Y0074120D01*
X0789799Y0073728D02*
X0791941Y0073728D01*
X0791755Y0073336D02*
X0789799Y0073336D01*
X0789799Y0072944D02*
X0791592Y0072944D01*
X0791450Y0072551D02*
X0789799Y0072551D01*
X0789799Y0072159D02*
X0791332Y0072159D01*
X0791226Y0071767D02*
X0789799Y0071767D01*
X0789799Y0071375D02*
X0791143Y0071375D01*
X0791077Y0070983D02*
X0789799Y0070983D01*
X0789799Y0070590D02*
X0791030Y0070590D01*
X0790998Y0070198D02*
X0789799Y0070198D01*
X0789799Y0069806D02*
X0790980Y0069806D01*
X0791000Y0069414D02*
X0789799Y0069414D01*
X0789799Y0069022D02*
X0791031Y0069022D01*
X0791062Y0068629D02*
X0789799Y0068629D01*
X0789799Y0068237D02*
X0791095Y0068237D01*
X0791189Y0067845D02*
X0789799Y0067845D01*
X0789799Y0067453D02*
X0791283Y0067453D01*
X0791377Y0067060D02*
X0789799Y0067060D01*
X0789799Y0066668D02*
X0791506Y0066668D01*
X0791668Y0066276D02*
X0789799Y0066276D01*
X0789799Y0065884D02*
X0791831Y0065884D01*
X0792006Y0065492D02*
X0789799Y0065492D01*
X0789799Y0065099D02*
X0792246Y0065099D01*
X0792486Y0064707D02*
X0789799Y0064707D01*
X0789799Y0064315D02*
X0792733Y0064315D01*
X0793068Y0063923D02*
X0789799Y0063923D01*
X0789799Y0063531D02*
X0793403Y0063531D01*
X0793778Y0063138D02*
X0789799Y0063138D01*
X0789799Y0062746D02*
X0794237Y0062746D01*
X0794696Y0062354D02*
X0789799Y0062354D01*
X0789799Y0061962D02*
X0795330Y0061962D01*
X0795991Y0061570D02*
X0789799Y0061570D01*
X0789799Y0061177D02*
X0796938Y0061177D01*
X0798355Y0060785D02*
X0789799Y0060785D01*
X0845988Y0060785D02*
X0854544Y0060785D01*
X0854808Y0060722D02*
X0853426Y0061053D01*
X0852113Y0061597D01*
X0850902Y0062340D01*
X0849821Y0063262D01*
X0848899Y0064343D01*
X0848156Y0065554D01*
X0847612Y0066867D01*
X0847281Y0068249D01*
X0847169Y0069665D01*
X0847169Y0069902D01*
X0847189Y0070236D01*
X0847209Y0070492D01*
X0847248Y0070866D01*
X0847287Y0071122D01*
X0847346Y0071457D01*
X0847406Y0071732D01*
X0847484Y0072028D01*
X0847583Y0072382D01*
X0847701Y0072736D01*
X0847839Y0073091D01*
X0847957Y0073366D01*
X0848094Y0073661D01*
X0848252Y0073957D01*
X0848429Y0074272D01*
X0848646Y0074626D01*
X0848823Y0074882D01*
X0849039Y0075177D01*
X0849177Y0075354D01*
X0849295Y0075492D01*
X0849551Y0075787D01*
X0849709Y0075945D01*
X0849925Y0076161D01*
X0850043Y0076280D01*
X0850260Y0076476D01*
X0850516Y0076693D01*
X0850811Y0076929D01*
X0851067Y0077106D01*
X0851362Y0077303D01*
X0851618Y0077461D01*
X0851894Y0077618D01*
X0852150Y0077756D01*
X0852287Y0077815D01*
X0852287Y0079902D01*
X0845988Y0079902D01*
X0845988Y0059429D01*
X0866461Y0059429D01*
X0866461Y0079902D01*
X0860161Y0079902D01*
X0860161Y0077815D01*
X0860260Y0077776D01*
X0860476Y0077657D01*
X0860732Y0077520D01*
X0861087Y0077303D01*
X0861382Y0077106D01*
X0861677Y0076890D01*
X0861854Y0076752D01*
X0862091Y0076555D01*
X0862248Y0076417D01*
X0862465Y0076220D01*
X0862602Y0076083D01*
X0862819Y0075866D01*
X0862996Y0075669D01*
X0863154Y0075492D01*
X0863252Y0075374D01*
X0863409Y0075177D01*
X0863587Y0074941D01*
X0863764Y0074685D01*
X0863902Y0074469D01*
X0864059Y0074213D01*
X0864157Y0074035D01*
X0864276Y0073819D01*
X0864394Y0073583D01*
X0864531Y0073287D01*
X0864650Y0072992D01*
X0864748Y0072736D01*
X0864807Y0072559D01*
X0864886Y0072323D01*
X0864965Y0072047D01*
X0865043Y0071732D01*
X0865122Y0071358D01*
X0865161Y0071122D01*
X0865201Y0070866D01*
X0865220Y0070709D01*
X0865240Y0070492D01*
X0865260Y0070276D01*
X0865280Y0069941D01*
X0865280Y0069665D01*
X0865168Y0068249D01*
X0864836Y0066867D01*
X0864293Y0065554D01*
X0863550Y0064343D01*
X0862627Y0063262D01*
X0861547Y0062340D01*
X0860335Y0061597D01*
X0859023Y0061053D01*
X0857641Y0060722D01*
X0856224Y0060610D01*
X0854808Y0060722D01*
X0853127Y0061177D02*
X0845988Y0061177D01*
X0845988Y0061570D02*
X0852180Y0061570D01*
X0851519Y0061962D02*
X0845988Y0061962D01*
X0845988Y0062354D02*
X0850885Y0062354D01*
X0850426Y0062746D02*
X0845988Y0062746D01*
X0845988Y0063138D02*
X0849967Y0063138D01*
X0849592Y0063531D02*
X0845988Y0063531D01*
X0845988Y0063923D02*
X0849257Y0063923D01*
X0848922Y0064315D02*
X0845988Y0064315D01*
X0845988Y0064707D02*
X0848675Y0064707D01*
X0848435Y0065099D02*
X0845988Y0065099D01*
X0845988Y0065492D02*
X0848195Y0065492D01*
X0848020Y0065884D02*
X0845988Y0065884D01*
X0845988Y0066276D02*
X0847857Y0066276D01*
X0847695Y0066668D02*
X0845988Y0066668D01*
X0845988Y0067060D02*
X0847566Y0067060D01*
X0847472Y0067453D02*
X0845988Y0067453D01*
X0845988Y0067845D02*
X0847378Y0067845D01*
X0847284Y0068237D02*
X0845988Y0068237D01*
X0845988Y0068629D02*
X0847251Y0068629D01*
X0847220Y0069022D02*
X0845988Y0069022D01*
X0845988Y0069414D02*
X0847189Y0069414D01*
X0847169Y0069806D02*
X0845988Y0069806D01*
X0845988Y0070198D02*
X0847187Y0070198D01*
X0847219Y0070590D02*
X0845988Y0070590D01*
X0845988Y0070983D02*
X0847266Y0070983D01*
X0847332Y0071375D02*
X0845988Y0071375D01*
X0845988Y0071767D02*
X0847415Y0071767D01*
X0847521Y0072159D02*
X0845988Y0072159D01*
X0845988Y0072551D02*
X0847639Y0072551D01*
X0847781Y0072944D02*
X0845988Y0072944D01*
X0845988Y0073336D02*
X0847944Y0073336D01*
X0848130Y0073728D02*
X0845988Y0073728D01*
X0845988Y0074120D02*
X0848344Y0074120D01*
X0848576Y0074513D02*
X0845988Y0074513D01*
X0845988Y0074905D02*
X0848840Y0074905D01*
X0849133Y0075297D02*
X0845988Y0075297D01*
X0845988Y0075689D02*
X0849466Y0075689D01*
X0849845Y0076081D02*
X0845988Y0076081D01*
X0845988Y0076474D02*
X0850257Y0076474D01*
X0850732Y0076866D02*
X0845988Y0076866D01*
X0845988Y0077258D02*
X0851295Y0077258D01*
X0851953Y0077650D02*
X0845988Y0077650D01*
X0845988Y0078042D02*
X0852287Y0078042D01*
X0852287Y0078435D02*
X0845988Y0078435D01*
X0845988Y0078827D02*
X0852287Y0078827D01*
X0852287Y0079219D02*
X0845988Y0079219D01*
X0845988Y0079611D02*
X0852287Y0079611D01*
X0860161Y0079611D02*
X0866461Y0079611D01*
X0866461Y0079219D02*
X0860161Y0079219D01*
X0860161Y0078827D02*
X0866461Y0078827D01*
X0866461Y0078435D02*
X0860161Y0078435D01*
X0860161Y0078042D02*
X0866461Y0078042D01*
X0866461Y0077650D02*
X0860490Y0077650D01*
X0861154Y0077258D02*
X0866461Y0077258D01*
X0866461Y0076866D02*
X0861708Y0076866D01*
X0862184Y0076474D02*
X0866461Y0076474D01*
X0866461Y0076081D02*
X0862604Y0076081D01*
X0862978Y0075689D02*
X0866461Y0075689D01*
X0866461Y0075297D02*
X0863314Y0075297D01*
X0863612Y0074905D02*
X0866461Y0074905D01*
X0866461Y0074513D02*
X0863874Y0074513D01*
X0864110Y0074120D02*
X0866461Y0074120D01*
X0866461Y0073728D02*
X0864321Y0073728D01*
X0864509Y0073336D02*
X0866461Y0073336D01*
X0866461Y0072944D02*
X0864668Y0072944D01*
X0864810Y0072551D02*
X0866461Y0072551D01*
X0866461Y0072159D02*
X0864933Y0072159D01*
X0865035Y0071767D02*
X0866461Y0071767D01*
X0866461Y0071375D02*
X0865119Y0071375D01*
X0865183Y0070983D02*
X0866461Y0070983D01*
X0866461Y0070590D02*
X0865231Y0070590D01*
X0865264Y0070198D02*
X0866461Y0070198D01*
X0866461Y0069806D02*
X0865280Y0069806D01*
X0865260Y0069414D02*
X0866461Y0069414D01*
X0866461Y0069022D02*
X0865229Y0069022D01*
X0865198Y0068629D02*
X0866461Y0068629D01*
X0866461Y0068237D02*
X0865165Y0068237D01*
X0865071Y0067845D02*
X0866461Y0067845D01*
X0866461Y0067453D02*
X0864977Y0067453D01*
X0864883Y0067060D02*
X0866461Y0067060D01*
X0866461Y0066668D02*
X0864754Y0066668D01*
X0864591Y0066276D02*
X0866461Y0066276D01*
X0866461Y0065884D02*
X0864429Y0065884D01*
X0864254Y0065492D02*
X0866461Y0065492D01*
X0866461Y0065099D02*
X0864014Y0065099D01*
X0863773Y0064707D02*
X0866461Y0064707D01*
X0866461Y0064315D02*
X0863526Y0064315D01*
X0863191Y0063923D02*
X0866461Y0063923D01*
X0866461Y0063531D02*
X0862856Y0063531D01*
X0862482Y0063138D02*
X0866461Y0063138D01*
X0866461Y0062746D02*
X0862023Y0062746D01*
X0861564Y0062354D02*
X0866461Y0062354D01*
X0866461Y0061962D02*
X0860930Y0061962D01*
X0860269Y0061570D02*
X0866461Y0061570D01*
X0866461Y0061177D02*
X0859322Y0061177D01*
X0857905Y0060785D02*
X0866461Y0060785D01*
X0866461Y0060393D02*
X0845988Y0060393D01*
X0845988Y0060001D02*
X0866461Y0060001D01*
X0866461Y0059608D02*
X0845988Y0059608D01*
X0902177Y0059608D02*
X0922650Y0059608D01*
X0922650Y0059429D02*
X0902177Y0059429D01*
X0902177Y0079902D01*
X0908476Y0079902D01*
X0908476Y0077815D01*
X0908339Y0077756D01*
X0908083Y0077618D01*
X0907807Y0077461D01*
X0907551Y0077303D01*
X0907256Y0077106D01*
X0907000Y0076929D01*
X0906705Y0076693D01*
X0906449Y0076476D01*
X0906232Y0076280D01*
X0906114Y0076161D01*
X0905898Y0075945D01*
X0905740Y0075787D01*
X0905484Y0075492D01*
X0905366Y0075354D01*
X0905228Y0075177D01*
X0905012Y0074882D01*
X0904835Y0074626D01*
X0904618Y0074272D01*
X0904441Y0073957D01*
X0904283Y0073661D01*
X0904146Y0073366D01*
X0904028Y0073091D01*
X0903890Y0072736D01*
X0903772Y0072382D01*
X0903673Y0072028D01*
X0903594Y0071732D01*
X0903535Y0071457D01*
X0903476Y0071122D01*
X0903437Y0070866D01*
X0903398Y0070492D01*
X0903378Y0070236D01*
X0903358Y0069902D01*
X0903358Y0069665D01*
X0903470Y0068249D01*
X0903801Y0066867D01*
X0904345Y0065554D01*
X0905088Y0064343D01*
X0906010Y0063262D01*
X0907091Y0062340D01*
X0908302Y0061597D01*
X0909615Y0061053D01*
X0910997Y0060722D01*
X0912413Y0060610D01*
X0913830Y0060722D01*
X0915212Y0061053D01*
X0916524Y0061597D01*
X0917736Y0062340D01*
X0918816Y0063262D01*
X0919739Y0064343D01*
X0920482Y0065554D01*
X0921025Y0066867D01*
X0921357Y0068249D01*
X0921469Y0069665D01*
X0921469Y0069941D01*
X0921449Y0070276D01*
X0921429Y0070492D01*
X0921409Y0070709D01*
X0921390Y0070866D01*
X0921350Y0071122D01*
X0921311Y0071358D01*
X0921232Y0071732D01*
X0921154Y0072047D01*
X0921075Y0072323D01*
X0920996Y0072559D01*
X0920937Y0072736D01*
X0920839Y0072992D01*
X0920720Y0073287D01*
X0920583Y0073583D01*
X0920465Y0073819D01*
X0920346Y0074035D01*
X0920248Y0074213D01*
X0920091Y0074469D01*
X0919953Y0074685D01*
X0919776Y0074941D01*
X0919598Y0075177D01*
X0919441Y0075374D01*
X0919343Y0075492D01*
X0919185Y0075669D01*
X0919008Y0075866D01*
X0918791Y0076083D01*
X0918654Y0076220D01*
X0918437Y0076417D01*
X0918280Y0076555D01*
X0918043Y0076752D01*
X0917866Y0076890D01*
X0917571Y0077106D01*
X0917276Y0077303D01*
X0916921Y0077520D01*
X0916665Y0077657D01*
X0916449Y0077776D01*
X0916350Y0077815D01*
X0916350Y0079902D01*
X0922650Y0079902D01*
X0922650Y0059429D01*
X0922650Y0060001D02*
X0902177Y0060001D01*
X0902177Y0060393D02*
X0922650Y0060393D01*
X0922650Y0060785D02*
X0914094Y0060785D01*
X0915511Y0061177D02*
X0922650Y0061177D01*
X0922650Y0061570D02*
X0916458Y0061570D01*
X0917119Y0061962D02*
X0922650Y0061962D01*
X0922650Y0062354D02*
X0917753Y0062354D01*
X0918212Y0062746D02*
X0922650Y0062746D01*
X0922650Y0063138D02*
X0918671Y0063138D01*
X0919045Y0063531D02*
X0922650Y0063531D01*
X0922650Y0063923D02*
X0919380Y0063923D01*
X0919715Y0064315D02*
X0922650Y0064315D01*
X0922650Y0064707D02*
X0919962Y0064707D01*
X0920203Y0065099D02*
X0922650Y0065099D01*
X0922650Y0065492D02*
X0920443Y0065492D01*
X0920618Y0065884D02*
X0922650Y0065884D01*
X0922650Y0066276D02*
X0920780Y0066276D01*
X0920943Y0066668D02*
X0922650Y0066668D01*
X0922650Y0067060D02*
X0921072Y0067060D01*
X0921166Y0067453D02*
X0922650Y0067453D01*
X0922650Y0067845D02*
X0921260Y0067845D01*
X0921354Y0068237D02*
X0922650Y0068237D01*
X0922650Y0068629D02*
X0921387Y0068629D01*
X0921418Y0069022D02*
X0922650Y0069022D01*
X0922650Y0069414D02*
X0921449Y0069414D01*
X0921469Y0069806D02*
X0922650Y0069806D01*
X0922650Y0070198D02*
X0921453Y0070198D01*
X0921420Y0070590D02*
X0922650Y0070590D01*
X0922650Y0070983D02*
X0921372Y0070983D01*
X0921308Y0071375D02*
X0922650Y0071375D01*
X0922650Y0071767D02*
X0921224Y0071767D01*
X0921122Y0072159D02*
X0922650Y0072159D01*
X0922650Y0072551D02*
X0920999Y0072551D01*
X0920857Y0072944D02*
X0922650Y0072944D01*
X0922650Y0073336D02*
X0920698Y0073336D01*
X0920510Y0073728D02*
X0922650Y0073728D01*
X0922650Y0074120D02*
X0920299Y0074120D01*
X0920063Y0074513D02*
X0922650Y0074513D01*
X0922650Y0074905D02*
X0919801Y0074905D01*
X0919503Y0075297D02*
X0922650Y0075297D01*
X0922650Y0075689D02*
X0919167Y0075689D01*
X0918793Y0076081D02*
X0922650Y0076081D01*
X0922650Y0076474D02*
X0918373Y0076474D01*
X0917897Y0076866D02*
X0922650Y0076866D01*
X0922650Y0077258D02*
X0917343Y0077258D01*
X0916679Y0077650D02*
X0922650Y0077650D01*
X0922650Y0078042D02*
X0916350Y0078042D01*
X0916350Y0078435D02*
X0922650Y0078435D01*
X0922650Y0078827D02*
X0916350Y0078827D01*
X0916350Y0079219D02*
X0922650Y0079219D01*
X0922650Y0079611D02*
X0916350Y0079611D01*
X0908476Y0079611D02*
X0902177Y0079611D01*
X0902177Y0079219D02*
X0908476Y0079219D01*
X0908476Y0078827D02*
X0902177Y0078827D01*
X0902177Y0078435D02*
X0908476Y0078435D01*
X0908476Y0078042D02*
X0902177Y0078042D01*
X0902177Y0077650D02*
X0908142Y0077650D01*
X0907483Y0077258D02*
X0902177Y0077258D01*
X0902177Y0076866D02*
X0906921Y0076866D01*
X0906446Y0076474D02*
X0902177Y0076474D01*
X0902177Y0076081D02*
X0906034Y0076081D01*
X0905655Y0075689D02*
X0902177Y0075689D01*
X0902177Y0075297D02*
X0905322Y0075297D01*
X0905029Y0074905D02*
X0902177Y0074905D01*
X0902177Y0074513D02*
X0904765Y0074513D01*
X0904533Y0074120D02*
X0902177Y0074120D01*
X0902177Y0073728D02*
X0904319Y0073728D01*
X0904133Y0073336D02*
X0902177Y0073336D01*
X0902177Y0072944D02*
X0903970Y0072944D01*
X0903828Y0072551D02*
X0902177Y0072551D01*
X0902177Y0072159D02*
X0903710Y0072159D01*
X0903604Y0071767D02*
X0902177Y0071767D01*
X0902177Y0071375D02*
X0903521Y0071375D01*
X0903455Y0070983D02*
X0902177Y0070983D01*
X0902177Y0070590D02*
X0903408Y0070590D01*
X0903376Y0070198D02*
X0902177Y0070198D01*
X0902177Y0069806D02*
X0903358Y0069806D01*
X0903378Y0069414D02*
X0902177Y0069414D01*
X0902177Y0069022D02*
X0903409Y0069022D01*
X0903440Y0068629D02*
X0902177Y0068629D01*
X0902177Y0068237D02*
X0903473Y0068237D01*
X0903567Y0067845D02*
X0902177Y0067845D01*
X0902177Y0067453D02*
X0903661Y0067453D01*
X0903755Y0067060D02*
X0902177Y0067060D01*
X0902177Y0066668D02*
X0903884Y0066668D01*
X0904046Y0066276D02*
X0902177Y0066276D01*
X0902177Y0065884D02*
X0904209Y0065884D01*
X0904384Y0065492D02*
X0902177Y0065492D01*
X0902177Y0065099D02*
X0904624Y0065099D01*
X0904864Y0064707D02*
X0902177Y0064707D01*
X0902177Y0064315D02*
X0905111Y0064315D01*
X0905446Y0063923D02*
X0902177Y0063923D01*
X0902177Y0063531D02*
X0905781Y0063531D01*
X0906156Y0063138D02*
X0902177Y0063138D01*
X0902177Y0062746D02*
X0906615Y0062746D01*
X0907074Y0062354D02*
X0902177Y0062354D01*
X0902177Y0061962D02*
X0907708Y0061962D01*
X0908369Y0061570D02*
X0902177Y0061570D01*
X0902177Y0061177D02*
X0909316Y0061177D01*
X0910733Y0060785D02*
X0902177Y0060785D01*
X0958366Y0060785D02*
X0966922Y0060785D01*
X0967186Y0060722D02*
X0968602Y0060610D01*
X0970019Y0060722D01*
X0971401Y0061053D01*
X0972713Y0061597D01*
X0973925Y0062340D01*
X0975005Y0063262D01*
X0975928Y0064343D01*
X0976671Y0065554D01*
X0977214Y0066867D01*
X0977546Y0068249D01*
X0977657Y0069665D01*
X0977657Y0069941D01*
X0977638Y0070276D01*
X0977618Y0070492D01*
X0977598Y0070709D01*
X0977579Y0070866D01*
X0977539Y0071122D01*
X0977500Y0071358D01*
X0977421Y0071732D01*
X0977343Y0072047D01*
X0977264Y0072323D01*
X0977185Y0072559D01*
X0977126Y0072736D01*
X0977028Y0072992D01*
X0976909Y0073287D01*
X0976772Y0073583D01*
X0976654Y0073819D01*
X0976535Y0074035D01*
X0976437Y0074213D01*
X0976280Y0074469D01*
X0976142Y0074685D01*
X0975965Y0074941D01*
X0975787Y0075177D01*
X0975630Y0075374D01*
X0975531Y0075492D01*
X0975374Y0075669D01*
X0975197Y0075866D01*
X0974980Y0076083D01*
X0974843Y0076220D01*
X0974626Y0076417D01*
X0974469Y0076555D01*
X0974232Y0076752D01*
X0974055Y0076890D01*
X0973760Y0077106D01*
X0973465Y0077303D01*
X0973110Y0077520D01*
X0972854Y0077657D01*
X0972638Y0077776D01*
X0972539Y0077815D01*
X0972539Y0079902D01*
X0978839Y0079902D01*
X0978839Y0059429D01*
X0958366Y0059429D01*
X0958366Y0079902D01*
X0964665Y0079902D01*
X0964665Y0077815D01*
X0964528Y0077756D01*
X0964272Y0077618D01*
X0963996Y0077461D01*
X0963740Y0077303D01*
X0963445Y0077106D01*
X0963189Y0076929D01*
X0962894Y0076693D01*
X0962638Y0076476D01*
X0962421Y0076280D01*
X0962303Y0076161D01*
X0962087Y0075945D01*
X0961929Y0075787D01*
X0961673Y0075492D01*
X0961555Y0075354D01*
X0961417Y0075177D01*
X0961201Y0074882D01*
X0961024Y0074626D01*
X0960807Y0074272D01*
X0960630Y0073957D01*
X0960472Y0073661D01*
X0960335Y0073366D01*
X0960217Y0073091D01*
X0960079Y0072736D01*
X0959961Y0072382D01*
X0959862Y0072028D01*
X0959783Y0071732D01*
X0959724Y0071457D01*
X0959665Y0071122D01*
X0959626Y0070866D01*
X0959587Y0070492D01*
X0959567Y0070236D01*
X0959547Y0069902D01*
X0959547Y0069665D01*
X0959659Y0068249D01*
X0959990Y0066867D01*
X0960534Y0065554D01*
X0961277Y0064343D01*
X0962199Y0063262D01*
X0963280Y0062340D01*
X0964491Y0061597D01*
X0965804Y0061053D01*
X0967186Y0060722D01*
X0965505Y0061177D02*
X0958366Y0061177D01*
X0958366Y0061570D02*
X0964558Y0061570D01*
X0963897Y0061962D02*
X0958366Y0061962D01*
X0958366Y0062354D02*
X0963263Y0062354D01*
X0962804Y0062746D02*
X0958366Y0062746D01*
X0958366Y0063138D02*
X0962345Y0063138D01*
X0961970Y0063531D02*
X0958366Y0063531D01*
X0958366Y0063923D02*
X0961635Y0063923D01*
X0961300Y0064315D02*
X0958366Y0064315D01*
X0958366Y0064707D02*
X0961053Y0064707D01*
X0960813Y0065099D02*
X0958366Y0065099D01*
X0958366Y0065492D02*
X0960573Y0065492D01*
X0960398Y0065884D02*
X0958366Y0065884D01*
X0958366Y0066276D02*
X0960235Y0066276D01*
X0960073Y0066668D02*
X0958366Y0066668D01*
X0958366Y0067060D02*
X0959944Y0067060D01*
X0959850Y0067453D02*
X0958366Y0067453D01*
X0958366Y0067845D02*
X0959756Y0067845D01*
X0959662Y0068237D02*
X0958366Y0068237D01*
X0958366Y0068629D02*
X0959629Y0068629D01*
X0959598Y0069022D02*
X0958366Y0069022D01*
X0958366Y0069414D02*
X0959567Y0069414D01*
X0959547Y0069806D02*
X0958366Y0069806D01*
X0958366Y0070198D02*
X0959565Y0070198D01*
X0959597Y0070590D02*
X0958366Y0070590D01*
X0958366Y0070983D02*
X0959644Y0070983D01*
X0959710Y0071375D02*
X0958366Y0071375D01*
X0958366Y0071767D02*
X0959793Y0071767D01*
X0959899Y0072159D02*
X0958366Y0072159D01*
X0958366Y0072551D02*
X0960017Y0072551D01*
X0960159Y0072944D02*
X0958366Y0072944D01*
X0958366Y0073336D02*
X0960322Y0073336D01*
X0960508Y0073728D02*
X0958366Y0073728D01*
X0958366Y0074120D02*
X0960722Y0074120D01*
X0960954Y0074513D02*
X0958366Y0074513D01*
X0958366Y0074905D02*
X0961218Y0074905D01*
X0961510Y0075297D02*
X0958366Y0075297D01*
X0958366Y0075689D02*
X0961844Y0075689D01*
X0962223Y0076081D02*
X0958366Y0076081D01*
X0958366Y0076474D02*
X0962635Y0076474D01*
X0963110Y0076866D02*
X0958366Y0076866D01*
X0958366Y0077258D02*
X0963672Y0077258D01*
X0964331Y0077650D02*
X0958366Y0077650D01*
X0958366Y0078042D02*
X0964665Y0078042D01*
X0964665Y0078435D02*
X0958366Y0078435D01*
X0958366Y0078827D02*
X0964665Y0078827D01*
X0964665Y0079219D02*
X0958366Y0079219D01*
X0958366Y0079611D02*
X0964665Y0079611D01*
X0972539Y0079611D02*
X0978839Y0079611D01*
X0978839Y0079219D02*
X0972539Y0079219D01*
X0972539Y0078827D02*
X0978839Y0078827D01*
X0978839Y0078435D02*
X0972539Y0078435D01*
X0972539Y0078042D02*
X0978839Y0078042D01*
X0978839Y0077650D02*
X0972868Y0077650D01*
X0973532Y0077258D02*
X0978839Y0077258D01*
X0978839Y0076866D02*
X0974086Y0076866D01*
X0974562Y0076474D02*
X0978839Y0076474D01*
X0978839Y0076081D02*
X0974982Y0076081D01*
X0975356Y0075689D02*
X0978839Y0075689D01*
X0978839Y0075297D02*
X0975692Y0075297D01*
X0975990Y0074905D02*
X0978839Y0074905D01*
X0978839Y0074513D02*
X0976252Y0074513D01*
X0976488Y0074120D02*
X0978839Y0074120D01*
X0978839Y0073728D02*
X0976699Y0073728D01*
X0976887Y0073336D02*
X0978839Y0073336D01*
X0978839Y0072944D02*
X0977046Y0072944D01*
X0977188Y0072551D02*
X0978839Y0072551D01*
X0978839Y0072159D02*
X0977311Y0072159D01*
X0977413Y0071767D02*
X0978839Y0071767D01*
X0978839Y0071375D02*
X0977497Y0071375D01*
X0977561Y0070983D02*
X0978839Y0070983D01*
X0978839Y0070590D02*
X0977609Y0070590D01*
X0977642Y0070198D02*
X0978839Y0070198D01*
X0978839Y0069806D02*
X0977657Y0069806D01*
X0977638Y0069414D02*
X0978839Y0069414D01*
X0978839Y0069022D02*
X0977607Y0069022D01*
X0977576Y0068629D02*
X0978839Y0068629D01*
X0978839Y0068237D02*
X0977543Y0068237D01*
X0977449Y0067845D02*
X0978839Y0067845D01*
X0978839Y0067453D02*
X0977355Y0067453D01*
X0977261Y0067060D02*
X0978839Y0067060D01*
X0978839Y0066668D02*
X0977132Y0066668D01*
X0976969Y0066276D02*
X0978839Y0066276D01*
X0978839Y0065884D02*
X0976807Y0065884D01*
X0976632Y0065492D02*
X0978839Y0065492D01*
X0978839Y0065099D02*
X0976392Y0065099D01*
X0976151Y0064707D02*
X0978839Y0064707D01*
X0978839Y0064315D02*
X0975904Y0064315D01*
X0975569Y0063923D02*
X0978839Y0063923D01*
X0978839Y0063531D02*
X0975234Y0063531D01*
X0974860Y0063138D02*
X0978839Y0063138D01*
X0978839Y0062746D02*
X0974401Y0062746D01*
X0973942Y0062354D02*
X0978839Y0062354D01*
X0978839Y0061962D02*
X0973308Y0061962D01*
X0972647Y0061570D02*
X0978839Y0061570D01*
X0978839Y0061177D02*
X0971700Y0061177D01*
X0970283Y0060785D02*
X0978839Y0060785D01*
X0978839Y0060393D02*
X0958366Y0060393D01*
X0958366Y0060001D02*
X0978839Y0060001D01*
X0978839Y0059608D02*
X0958366Y0059608D01*
D15*
X0968287Y0036791D03*
X0912579Y0037776D03*
X0856476Y0037382D03*
X0799587Y0037972D03*
X0744469Y0038957D03*
X0686988Y0039547D03*
X0631870Y0040728D03*
X0574587Y0041516D03*
X0518878Y0041516D03*
X0463366Y0042894D03*
X0407067Y0042894D03*
X0349783Y0043878D03*
X0293878Y0044665D03*
X0238366Y0044665D03*
X0182264Y0045059D03*
X0125374Y0045059D03*
D16*
X0125768Y0045453D01*
X0125768Y0060020D01*
X0125768Y0083839D02*
X0125768Y0542272D01*
X0181957Y0542272D02*
X0181957Y0229114D01*
X0181957Y0187799D01*
X0181957Y0142917D01*
X0181957Y0083839D01*
X0181957Y0060020D02*
X0181957Y0045366D01*
X0182264Y0045059D01*
X0238146Y0044886D02*
X0238366Y0044665D01*
X0238146Y0044886D02*
X0238146Y0060020D01*
X0238146Y0083839D02*
X0238146Y0497390D01*
X0238146Y0503130D01*
X0238146Y0542272D01*
X0294335Y0542272D02*
X0294335Y0083839D01*
X0294335Y0060020D02*
X0294335Y0045122D01*
X0293878Y0044665D01*
X0349783Y0043878D02*
X0350524Y0044618D01*
X0350524Y0060020D01*
X0350524Y0083839D02*
X0350524Y0497390D01*
X0350524Y0499193D01*
X0350524Y0542272D01*
X0406713Y0542272D02*
X0406713Y0083839D01*
X0406713Y0060020D02*
X0406713Y0043248D01*
X0407067Y0042894D01*
X0462902Y0043358D02*
X0463366Y0042894D01*
X0462902Y0043358D02*
X0462902Y0060020D01*
X0462902Y0083839D02*
X0462902Y0542272D01*
X0519091Y0542272D02*
X0519091Y0083839D01*
X0519091Y0060020D02*
X0519091Y0041728D01*
X0518878Y0041516D01*
X0574587Y0041516D02*
X0575280Y0042209D01*
X0575280Y0060020D01*
X0575280Y0083839D02*
X0575280Y0542272D01*
X0631469Y0542272D02*
X0631469Y0144862D01*
X0631469Y0142917D01*
X0631469Y0083839D01*
X0631469Y0060020D02*
X0631469Y0041130D01*
X0631870Y0040728D01*
X0686988Y0039547D02*
X0687657Y0040217D01*
X0687657Y0060020D01*
X0687657Y0083839D02*
X0687657Y0542272D01*
X0743846Y0542272D02*
X0743846Y0201996D01*
X0743287Y0199980D01*
X0743846Y0187799D01*
X0743846Y0083839D01*
X0743846Y0060020D02*
X0743846Y0039579D01*
X0744469Y0038957D01*
X0799587Y0037972D02*
X0800035Y0038421D01*
X0800035Y0060020D01*
X0800035Y0083839D02*
X0800035Y0424114D01*
X0798406Y0436201D01*
X0800035Y0438311D01*
X0800035Y0542272D01*
X0856224Y0542272D02*
X0856224Y0203917D01*
X0857461Y0199980D01*
X0857461Y0207854D01*
X0856224Y0187799D01*
X0856224Y0083839D01*
X0856224Y0060020D02*
X0856476Y0059768D01*
X0856476Y0037382D01*
X0912579Y0037776D02*
X0912579Y0059854D01*
X0912413Y0060020D01*
X0912413Y0083839D02*
X0912413Y0246878D01*
X0912579Y0262972D01*
X0912413Y0261075D01*
X0912413Y0542272D01*
X0968602Y0542272D02*
X0968602Y0262972D01*
X0968602Y0261075D01*
X0968602Y0083839D01*
X0968602Y0060020D02*
X0968602Y0037106D01*
X0968287Y0036791D01*
X0856224Y0201996D02*
X0856224Y0203917D01*
M02*
