G75*
%MOIN*%
%OFA0B0*%
%FSLAX25Y25*%
%IPPOS*%
%LPD*%
%AMOC8*
5,1,8,0,0,1.08239X$1,22.5*
%
%ADD10C,0.04260*%
%ADD11C,0.03543*%
D10*
X0019533Y0006441D02*
X1010349Y0006441D01*
X1009497Y0006794D01*
X1006794Y0009497D01*
X1005331Y0013029D01*
X1005331Y0016853D01*
X1006794Y0020385D01*
X1009497Y0023088D01*
X1013029Y0024551D01*
X1016853Y0024551D01*
X1020385Y0023088D01*
X1023088Y0020385D01*
X1023441Y0019533D01*
X1023441Y0616648D01*
X1023088Y0615796D01*
X1020385Y0613093D01*
X1016853Y0611630D01*
X1013029Y0611630D01*
X1009497Y0613093D01*
X1006794Y0615796D01*
X1005331Y0619329D01*
X1005331Y0623152D01*
X1006794Y0626684D01*
X1009497Y0629387D01*
X1010349Y0629740D01*
X0019533Y0629740D01*
X0020385Y0629387D01*
X0023088Y0626684D01*
X0024551Y0623152D01*
X0024551Y0619329D01*
X0023088Y0615796D01*
X0020385Y0613093D01*
X0016853Y0611630D01*
X0013029Y0611630D01*
X0009497Y0613093D01*
X0006794Y0615796D01*
X0006441Y0616648D01*
X0006441Y0019533D01*
X0006794Y0020385D01*
X0009497Y0023088D01*
X0013029Y0024551D01*
X0016853Y0024551D01*
X0020385Y0023088D01*
X0023088Y0020385D01*
X0024551Y0016853D01*
X0024551Y0013029D01*
X0023088Y0009497D01*
X0020385Y0006794D01*
X0019533Y0006441D01*
X0020979Y0007388D02*
X1008903Y0007388D01*
X1005903Y0011647D02*
X0023978Y0011647D01*
X0024551Y0015905D02*
X1005331Y0015905D01*
X1006702Y0020163D02*
X0023180Y0020163D01*
X0017165Y0024422D02*
X1012717Y0024422D01*
X1017165Y0024422D02*
X1023441Y0024422D01*
X1023441Y0028680D02*
X0006441Y0028680D01*
X0006441Y0024422D02*
X0012717Y0024422D01*
X0006702Y0020163D02*
X0006441Y0020163D01*
X0006441Y0032938D02*
X1023441Y0032938D01*
X1023441Y0037197D02*
X0006441Y0037197D01*
X0006441Y0041455D02*
X1023441Y0041455D01*
X1023441Y0045713D02*
X0006441Y0045713D01*
X0006441Y0049972D02*
X1023441Y0049972D01*
X1023441Y0054230D02*
X0006441Y0054230D01*
X0006441Y0058489D02*
X1023441Y0058489D01*
X1023441Y0062747D02*
X0006441Y0062747D01*
X0006441Y0067005D02*
X1023441Y0067005D01*
X1023441Y0071264D02*
X0006441Y0071264D01*
X0006441Y0075522D02*
X1023441Y0075522D01*
X1023441Y0079780D02*
X0006441Y0079780D01*
X0006441Y0084039D02*
X1023441Y0084039D01*
X1023441Y0088297D02*
X0006441Y0088297D01*
X0006441Y0092555D02*
X1023441Y0092555D01*
X1023441Y0096814D02*
X0006441Y0096814D01*
X0006441Y0101072D02*
X1023441Y0101072D01*
X1023441Y0105330D02*
X0006441Y0105330D01*
X0006441Y0109589D02*
X1023441Y0109589D01*
X1023441Y0113847D02*
X0006441Y0113847D01*
X0006441Y0118105D02*
X1023441Y0118105D01*
X1023441Y0122364D02*
X0006441Y0122364D01*
X0006441Y0126622D02*
X1023441Y0126622D01*
X1023441Y0130881D02*
X0006441Y0130881D01*
X0006441Y0135139D02*
X1023441Y0135139D01*
X1023441Y0139397D02*
X0006441Y0139397D01*
X0006441Y0143656D02*
X1023441Y0143656D01*
X1023441Y0147914D02*
X0006441Y0147914D01*
X0006441Y0152172D02*
X1023441Y0152172D01*
X1023441Y0156431D02*
X0006441Y0156431D01*
X0006441Y0160689D02*
X1023441Y0160689D01*
X1023441Y0164947D02*
X0006441Y0164947D01*
X0006441Y0169206D02*
X1023441Y0169206D01*
X1023441Y0173464D02*
X0006441Y0173464D01*
X0006441Y0177722D02*
X1023441Y0177722D01*
X1023441Y0181981D02*
X0006441Y0181981D01*
X0006441Y0186239D02*
X1023441Y0186239D01*
X1023441Y0190497D02*
X0006441Y0190497D01*
X0006441Y0194756D02*
X1023441Y0194756D01*
X1023441Y0199014D02*
X0006441Y0199014D01*
X0006441Y0203273D02*
X1023441Y0203273D01*
X1023441Y0207531D02*
X0006441Y0207531D01*
X0006441Y0211789D02*
X1023441Y0211789D01*
X1023441Y0216048D02*
X0006441Y0216048D01*
X0006441Y0220306D02*
X1023441Y0220306D01*
X1023441Y0224564D02*
X0006441Y0224564D01*
X0006441Y0228823D02*
X1023441Y0228823D01*
X1023441Y0233081D02*
X0006441Y0233081D01*
X0006441Y0237339D02*
X1023441Y0237339D01*
X1023441Y0241598D02*
X0006441Y0241598D01*
X0006441Y0245856D02*
X1023441Y0245856D01*
X1023441Y0250114D02*
X0006441Y0250114D01*
X0006441Y0254373D02*
X1023441Y0254373D01*
X1023441Y0258631D02*
X0006441Y0258631D01*
X0006441Y0262890D02*
X1023441Y0262890D01*
X1023441Y0267148D02*
X0006441Y0267148D01*
X0006441Y0271406D02*
X1023441Y0271406D01*
X1023441Y0275665D02*
X0006441Y0275665D01*
X0006441Y0279923D02*
X1023441Y0279923D01*
X1023441Y0284181D02*
X0006441Y0284181D01*
X0006441Y0288440D02*
X1023441Y0288440D01*
X1023441Y0292698D02*
X0006441Y0292698D01*
X0006441Y0296956D02*
X1023441Y0296956D01*
X1023441Y0301215D02*
X0006441Y0301215D01*
X0006441Y0305473D02*
X1023441Y0305473D01*
X1023441Y0309731D02*
X0062786Y0309731D01*
X0063298Y0309943D02*
X0066001Y0312647D01*
X0067465Y0316179D01*
X0067465Y0320002D01*
X0066001Y0323534D01*
X0063298Y0326238D01*
X0059766Y0327701D01*
X0055943Y0327701D01*
X0052411Y0326238D01*
X0049707Y0323534D01*
X0048244Y0320002D01*
X0048244Y0316179D01*
X0049707Y0312647D01*
X0052411Y0309943D01*
X0055943Y0308480D01*
X0059766Y0308480D01*
X0063298Y0309943D01*
X0066558Y0313990D02*
X1023441Y0313990D01*
X1023441Y0318248D02*
X0067465Y0318248D01*
X0066427Y0322506D02*
X1023441Y0322506D01*
X1023441Y0326765D02*
X0062026Y0326765D01*
X0053683Y0326765D02*
X0026986Y0326765D01*
X0028259Y0326238D02*
X0024727Y0327701D01*
X0020903Y0327701D01*
X0017371Y0326238D01*
X0014668Y0323534D01*
X0013205Y0320002D01*
X0013205Y0316179D01*
X0014668Y0312647D01*
X0017371Y0309943D01*
X0020903Y0308480D01*
X0024727Y0308480D01*
X0028259Y0309943D01*
X0030962Y0312647D01*
X0032425Y0316179D01*
X0032425Y0320002D01*
X0030962Y0323534D01*
X0028259Y0326238D01*
X0031388Y0322506D02*
X0049281Y0322506D01*
X0048244Y0318248D02*
X0032425Y0318248D01*
X0031518Y0313990D02*
X0049151Y0313990D01*
X0052922Y0309731D02*
X0027747Y0309731D01*
X0017883Y0309731D02*
X0006441Y0309731D01*
X0006441Y0313990D02*
X0014112Y0313990D01*
X0013205Y0318248D02*
X0006441Y0318248D01*
X0006441Y0322506D02*
X0014242Y0322506D01*
X0018644Y0326765D02*
X0006441Y0326765D01*
X0006441Y0331023D02*
X1023441Y0331023D01*
X1023441Y0335282D02*
X0006441Y0335282D01*
X0006441Y0339540D02*
X1023441Y0339540D01*
X1023441Y0343798D02*
X0006441Y0343798D01*
X0006441Y0348057D02*
X1023441Y0348057D01*
X1023441Y0352315D02*
X0006441Y0352315D01*
X0006441Y0356573D02*
X1023441Y0356573D01*
X1023441Y0360832D02*
X0006441Y0360832D01*
X0006441Y0365090D02*
X1023441Y0365090D01*
X1023441Y0369348D02*
X0006441Y0369348D01*
X0006441Y0373607D02*
X1023441Y0373607D01*
X1023441Y0377865D02*
X0006441Y0377865D01*
X0006441Y0382123D02*
X1023441Y0382123D01*
X1023441Y0386382D02*
X0006441Y0386382D01*
X0006441Y0390640D02*
X1023441Y0390640D01*
X1023441Y0394898D02*
X0006441Y0394898D01*
X0006441Y0399157D02*
X1023441Y0399157D01*
X1023441Y0403415D02*
X0006441Y0403415D01*
X0006441Y0407674D02*
X1023441Y0407674D01*
X1023441Y0411932D02*
X0006441Y0411932D01*
X0006441Y0416190D02*
X1023441Y0416190D01*
X1023441Y0420449D02*
X0006441Y0420449D01*
X0006441Y0424707D02*
X1023441Y0424707D01*
X1023441Y0428965D02*
X0006441Y0428965D01*
X0006441Y0433224D02*
X1023441Y0433224D01*
X1023441Y0437482D02*
X0006441Y0437482D01*
X0006441Y0441740D02*
X1023441Y0441740D01*
X1023441Y0445999D02*
X0006441Y0445999D01*
X0006441Y0450257D02*
X1023441Y0450257D01*
X1023441Y0454515D02*
X0006441Y0454515D01*
X0006441Y0458774D02*
X1023441Y0458774D01*
X1023441Y0463032D02*
X0006441Y0463032D01*
X0006441Y0467290D02*
X1023441Y0467290D01*
X1023441Y0471549D02*
X0006441Y0471549D01*
X0006441Y0475807D02*
X1023441Y0475807D01*
X1023441Y0480066D02*
X0006441Y0480066D01*
X0006441Y0484324D02*
X1023441Y0484324D01*
X1023441Y0488582D02*
X0006441Y0488582D01*
X0006441Y0492841D02*
X1023441Y0492841D01*
X1023441Y0497099D02*
X0006441Y0497099D01*
X0006441Y0501357D02*
X1023441Y0501357D01*
X1023441Y0505616D02*
X0006441Y0505616D01*
X0006441Y0509874D02*
X1023441Y0509874D01*
X1023441Y0514132D02*
X0006441Y0514132D01*
X0006441Y0518391D02*
X1023441Y0518391D01*
X1023441Y0522649D02*
X0006441Y0522649D01*
X0006441Y0526907D02*
X1023441Y0526907D01*
X1023441Y0531166D02*
X0006441Y0531166D01*
X0006441Y0535424D02*
X1023441Y0535424D01*
X1023441Y0539683D02*
X0006441Y0539683D01*
X0006441Y0543941D02*
X1023441Y0543941D01*
X1023441Y0548199D02*
X0006441Y0548199D01*
X0006441Y0552458D02*
X1023441Y0552458D01*
X1023441Y0556716D02*
X0006441Y0556716D01*
X0006441Y0560974D02*
X1023441Y0560974D01*
X1023441Y0565233D02*
X0006441Y0565233D01*
X0006441Y0569491D02*
X1023441Y0569491D01*
X1023441Y0573749D02*
X0006441Y0573749D01*
X0006441Y0578008D02*
X1023441Y0578008D01*
X1023441Y0582266D02*
X0006441Y0582266D01*
X0006441Y0586524D02*
X1023441Y0586524D01*
X1023441Y0590783D02*
X0006441Y0590783D01*
X0006441Y0595041D02*
X1023441Y0595041D01*
X1023441Y0599299D02*
X0006441Y0599299D01*
X0006441Y0603558D02*
X1023441Y0603558D01*
X1023441Y0607816D02*
X0006441Y0607816D01*
X0006441Y0612075D02*
X0011956Y0612075D01*
X0017926Y0612075D02*
X1011956Y0612075D01*
X1017926Y0612075D02*
X1023441Y0612075D01*
X1023441Y0616333D02*
X1023310Y0616333D01*
X1006572Y0616333D02*
X0023310Y0616333D01*
X0024551Y0620591D02*
X1005331Y0620591D01*
X1006034Y0624850D02*
X0023848Y0624850D01*
X0020664Y0629108D02*
X1009218Y0629108D01*
X1023180Y0020163D02*
X1023441Y0020163D01*
X0006572Y0616333D02*
X0006441Y0616333D01*
D11*
X0125374Y0045059D03*
X0182264Y0045059D03*
X0238366Y0044665D03*
X0293878Y0044665D03*
X0349783Y0043878D03*
X0407067Y0042894D03*
X0463366Y0042894D03*
X0518878Y0041516D03*
X0574587Y0041516D03*
X0631870Y0040728D03*
X0686988Y0039547D03*
X0744469Y0038957D03*
X0799587Y0037972D03*
X0856476Y0037382D03*
X0912579Y0037776D03*
X0968287Y0036791D03*
M02*
