%
M48
M72
T01C0.02362
T02C0.12598
%
T01
X125374Y45059
X182264Y45059
X238366Y44665
X293878Y44665
X349783Y43878
X407067Y42894
X463366Y42894
X518878Y41516
X574587Y41516
X631870Y40728
X686988Y39547
X744469Y38957
X799587Y37972
X856476Y37382
X912579Y37776
X968287Y36791
T02
X14941Y14941
X22815Y318091
X57854Y318091
X14941Y621240
X1014941Y621240
X1014941Y14941
M30
